<?xml version="1.0" encoding="utf-8"?>
<!-- Generator: Adobe Illustrator 15.1.0, SVG Export Plug-In . SVG Version: 6.00 Build 0)  -->
<!DOCTYPE svg PUBLIC "-//W3C//DTD SVG 1.1//EN" "http://www.w3.org/Graphics/SVG/1.1/DTD/svg11.dtd">
<svg version="1.1" id="Layer_1" xmlns="http://www.w3.org/2000/svg" xmlns:xlink="http://www.w3.org/1999/xlink" x="0px" y="0px"
	 width="100px" height="100px" viewBox="0 0 100 100" enable-background="new 0 0 100 100" xml:space="preserve">
<g>
	<path d="M27.778,18.242"/>
	<path d="M75.91,12.059H38.37c-1.491,0-3.931,0-5.422,0H28.76c-1.491,0-3.626,0.807-4.745,1.792l-0.601,0.53
		c-1.119,0.986-2.034,3.013-2.034,4.504v2.069v0.45V85.23c0,1.49,1.22,2.711,2.711,2.711h47.147c1.492,0,2.711-1.221,2.711-2.711
		V20.954c0-1.491-1.219-2.711-2.711-2.711H39.722c0-0.987-0.8-1.787-1.785-1.787s-1.783,0.8-1.783,1.787v0.701v17.903l-4.49-4.383
		l-3.885,4.383V18.242h-3.688c-0.02,0-0.038,0.005-0.057,0.006l2.916-3.34h8.707h40.209V82.66h0.043
		c1.489,0,2.711-1.221,2.711-2.711V14.77C78.621,13.279,77.4,12.059,75.91,12.059z"/>
</g>
</svg>
