<?xml version="1.0" encoding="utf-8"?>
<!-- Generator: Adobe Illustrator 15.1.0, SVG Export Plug-In . SVG Version: 6.00 Build 0)  -->
<!DOCTYPE svg PUBLIC "-//W3C//DTD SVG 1.1//EN" "http://www.w3.org/Graphics/SVG/1.1/DTD/svg11.dtd">
<svg version="1.1" id="Layer_1" xmlns="http://www.w3.org/2000/svg" xmlns:xlink="http://www.w3.org/1999/xlink" x="0px" y="0px"
	 width="71px" height="100px" viewBox="0 0 71 100" enable-background="new 0 0 71 100" xml:space="preserve">
<path d="M70,7.583H56.625V5.961c0-0.55-0.45-1-1-1H43.443V2c0-1.1-0.9-2-2-2H29.557c-1.1,0-2,0.9-2,2v2.961H15.375
	c-0.55,0-1,0.45-1,1v1.623H1c-0.55,0-1,0.45-1,1V99c0,0.55,0.45,1,1,1h69c0.55,0,1-0.45,1-1V8.583C71,8.034,70.55,7.583,70,7.583z
	 M35.5,2.319c1.094,0,1.98,0.887,1.98,1.98c0,1.094-0.888,1.981-1.98,1.981c-1.094,0-1.981-0.887-1.981-1.981
	C33.519,3.206,34.406,2.319,35.5,2.319z M63.495,92.395c0,0.551-0.45,1-1,1H8.505c-0.55,0-1-0.449-1-1V15.188c0-0.55,0.45-1,1-1
	h5.87v1.669c0,0.55,0.45,1,1,1h40.25c0.55,0,1-0.45,1-1v-1.669h5.87c0.55,0,1,0.45,1,1V92.395z"/>
<path d="M51.936,21.807c-0.552,0-1.052,0.229-1.413,0.6L28.985,44.412l-7.169-7.324c-0.361-0.37-0.86-0.6-1.413-0.6
	c-1.103,0-1.996,0.912-1.996,2.039c0,0.564,0.225,1.075,0.587,1.443l8.578,8.764c0.361,0.37,0.861,0.6,1.413,0.6
	s1.051-0.229,1.413-0.6L53.345,25.29c0.362-0.37,0.587-0.88,0.587-1.444C53.932,22.72,53.038,21.807,51.936,21.807z"/>
<polygon points="37.966,33.022 37.966,28.943 14.017,28.943 14.017,53.413 37.966,53.413 37.966,43.921 35.571,46.367 
	35.571,50.967 16.411,50.967 16.411,31.391 35.571,31.391 35.571,35.469 "/>
<path d="M53.461,53.413c-0.551,0-1.051,0.229-1.412,0.6L30.511,76.019l-7.169-7.324c-0.361-0.37-0.86-0.6-1.413-0.6
	c-1.103,0-1.996,0.912-1.996,2.039c0,0.564,0.225,1.075,0.587,1.443l8.578,8.764c0.361,0.37,0.861,0.6,1.413,0.6
	s1.051-0.229,1.413-0.6l22.948-23.444c0.361-0.37,0.586-0.88,0.586-1.444C55.457,54.326,54.564,53.413,53.461,53.413z"/>
<polygon points="39.492,64.629 39.492,60.55 15.542,60.55 15.542,85.02 39.492,85.02 39.492,75.527 37.096,77.974 37.096,82.573 
	17.937,82.573 17.937,62.997 37.096,62.997 37.096,67.075 "/>
</svg>
