<?xml version="1.0" encoding="utf-8"?>
<!-- Generator: Adobe Illustrator 15.1.0, SVG Export Plug-In . SVG Version: 6.00 Build 0)  -->
<!DOCTYPE svg PUBLIC "-//W3C//DTD SVG 1.1//EN" "http://www.w3.org/Graphics/SVG/1.1/DTD/svg11.dtd">
<svg version="1.1" id="Layer_1" xmlns="http://www.w3.org/2000/svg" xmlns:xlink="http://www.w3.org/1999/xlink" x="0px" y="0px"
	 width="86px" height="100px" viewBox="0 0 86 100" enable-background="new 0 0 86 100" xml:space="preserve">
<path d="M68,5V0H18v5H0v3c0,15.575,4.221,27.347,12.545,34.988c5.062,4.646,10.761,6.932,15.508,8.043
	c3.156,2.359,6.889,3.99,10.947,4.645v31.633L17,100h26h26L47,87.309V55.676c4.061-0.654,7.791-2.283,10.947-4.645
	c4.748-1.111,10.445-3.397,15.508-8.043C81.779,35.347,86,23.575,86,8V5H68z M16.603,38.568C10.086,32.586,6.545,23.321,6.059,11H18
	v21h0.025c0.131,3.333,0.914,6.497,2.226,9.37C19.01,40.576,17.782,39.651,16.603,38.568z M48.73,26.102L52.27,37L43,30.265
	L33.73,37l3.539-10.898L28,19.366h11.459L43,8.468l3.541,10.898H58L48.73,26.102z M69.453,38.517
	c-1.193,1.102-2.438,2.039-3.7,2.843c1.31-2.871,2.091-6.031,2.222-9.36H68V11h11.941C79.457,23.286,75.936,32.533,69.453,38.517z"
	/>
</svg>
