<?xml version="1.0" ?><!DOCTYPE svg  PUBLIC '-//W3C//DTD SVG 1.1//EN'  'http://www.w3.org/Graphics/SVG/1.1/DTD/svg11.dtd'><svg enable_background="new 0 0 800 1160" height="1160px" style="stroke-linejoin: round; stroke:#000; fill:#f6f3f0;" version="1.1" viewBox="0 0 800 1160" width="800px" xmlns="http://www.w3.org/2000/svg" xmlns:xlink="http://www.w3.org/1999/xlink"><defs><style type="text/css"><![CDATA[path { fill-rule: evenodd; }
#context path { fill: #eee; stroke: #bbb; } ]]></style></defs><metadata><views><view h="1160.7768055" padding="0" w="800"><proj id="laea" lat0="7.25" lon0="12.3"/><bbox h="139.64" w="96.32" x="951.84" y="930.06"/><llbbox lat0="1.6" lat1="12.9" lon0="8.4" lon1="16.2"/></view></views></metadata><g id="commune"><path d="M315.882588,921.907294L316.772635,922.590543L317.464869,924.196600L317.526766,925.631723L317.547646,925.650146L318.301368,924.706588L319.758847,923.757099L320.345383,923.872211L320.881345,923.955572L320.904095,923.959116L322.557745,922.869895L322.796891,922.757221L322.722227,922.684479L323.457350,921.510872L315.968088,921.737015L315.882588,921.907294Z " data-arrondisse="Yaoundé I" data-departemen="Mfoundi" data-region="Centre"/><path d="M325.282297,926.041271L324.337890,922.905744L323.075336,923.028434L322.796891,922.757221L322.557745,922.869895L320.904095,923.959116L320.881345,923.955572L320.761412,924.661482L322.042047,925.932647L322.657033,925.935411L323.524660,925.658134L323.426851,926.257255L323.969152,926.334982L324.640349,926.253642L325.285376,926.047472L325.282297,926.041271Z " data-arrondisse="Yaoundé V" data-commune="Yaoundé V" data-departemen="Mfoundi" data-region="Centre"/><path d="M320.345383,923.872211L319.758847,923.757099L318.301368,924.706588L317.547646,925.650146L317.429085,925.803303L317.255967,927.429573L318.787947,928.786278L318.889640,931.289463L318.913823,931.265339L319.058014,931.121492L322.340745,928.099220L323.409990,926.360610L323.426851,926.257255L323.524660,925.658134L322.657033,925.935411L322.042047,925.932647L320.761412,924.661482L320.881345,923.955572L320.345383,923.872211Z " data-arrondisse="Yaoundé III" data-commune="Yaoundé III" data-departemen="Mfoundi" data-region="Centre"/><path d="M317.526766,925.631723L317.210907,925.833162L316.345571,926.439764L315.322529,925.955092L314.473225,926.200133L313.598108,926.428742L313.315031,927.299205L312.750321,928.674625L312.552557,929.068367L312.650145,929.090990L314.033575,930.757991L316.403507,932.498014L319.261742,933.239953L319.384132,933.040919L319.027694,931.711881L318.913823,931.265339L318.889640,931.289463L318.787947,928.786278L317.255967,927.429573L317.429085,925.803303L317.547646,925.650146L317.526766,925.631723Z " data-arrondisse="Yaoundé VI" data-commune="Yaoundé VI" data-departemen="Mfoundi" data-region="Centre"/><path d="M325.285376,926.047472L324.640349,926.253642L323.969152,926.334982L323.426851,926.257255L323.409990,926.360610L322.340745,928.099220L319.058014,931.121492L318.913823,931.265339L319.027694,931.711881L319.384132,933.040919L319.532966,932.798922L323.913521,927.875395L325.577115,926.770117L325.507337,926.498787L325.285376,926.047472Z " data-arrondisse="Yaoundé IV" data-commune="Yaoundé IV" data-departemen="Mfoundi" data-region="Centre"/><path d="M317.464869,924.196600L316.772635,922.590543L315.882588,921.907294L315.881313,921.909803L314.819346,922.919199L314.599810,923.040633L313.332592,923.451043L313.236390,923.546986L313.828433,924.493984L313.310900,925.339169L313.378766,926.201396L313.598108,926.428742L314.473225,926.200133L315.322529,925.955092L316.345571,926.439764L317.210907,925.833162L317.526766,925.631723L317.464869,924.196600Z " data-arrondisse="Yaoundé VII" data-commune="Yaoundé VII" data-departemen="Mfoundi" data-region="Centre"/><path d="M313.378766,926.201396L313.310900,925.339169L313.828433,924.493984L313.236390,923.546986L313.149308,923.633834L309.259697,925.501259L309.265336,926.634350L312.265717,929.001826L312.552557,929.068367L312.750321,928.674625L313.315031,927.299205L313.598108,926.428742L313.378766,926.201396Z " data-arrondisse="Yaoundé II" data-commune="Yaoundé II" data-departemen="Mfoundi" data-region="Centre"/><path d="M441.883611,531.471632L431.810916,538.615832L424.419055,550.339390L414.390564,548.274621L403.273662,553.420597L402.047131,557.345294L397.466520,562.009698L394.346556,567.242244L395.734647,570.557333L402.773997,578.108660L406.346412,585.514668L419.138190,598.818230L432.995785,606.137971L438.168416,604.890128L449.680150,605.705359L459.574933,607.186664L455.022680,601.541070L454.232705,592.124584L457.570775,587.366921L459.893434,587.004666L465.282976,579.896360L470.605390,577.856732L472.823952,569.246733L482.003333,564.534951L486.148348,558.239580L484.612208,554.994234L490.061964,547.236485L495.809797,547.421541L495.760669,544.291832L495.915305,543.908014L481.134015,544.404351L464.030873,538.402142L451.341338,537.826133L445.898957,535.417008L442.499337,530.400114L441.883611,531.471632Z " data-arrondisse="Tignère" data-commune="Tignère" data-departemen="Faro-et-Déo" data-region="Adamaoua"/></g><g id="region"><path d="M512.135944,286.107278L513.673942,290.216862L526.440542,288.439003L527.370626,290.073796L532.992612,285.238051L540.527121,284.406044L527.777979,278.871614L529.712818,272.627645L535.391822,274.399912L541.793964,271.883901L546.394737,273.103534L566.170028,275.438676L571.372764,279.529393L576.159105,281.515884L581.660721,286.127298L593.252323,289.265975L594.054597,290.988334L592.086828,297.912154L592.325788,298.030409L618.205434,297.889720L652.468041,304.542724L675.698738,301.324315L678.431712,303.336865L683.489486,299.354053L698.079082,298.920961L709.192451,301.685257L714.123849,304.374899L725.922862,302.165522L740.608533,296.723262L723.986228,287.894178L708.061636,268.323097L703.394233,265.461427L692.929769,246.622725L691.035071,246.037532L686.388789,238.197125L687.523089,234.708905L685.495943,225.526949L681.264438,219.928308L678.812995,213.511469L681.160839,208.972851L680.477879,202.826943L676.166079,195.112426L679.708428,190.939947L681.338857,184.937664L680.889698,178.107102L678.489801,175.344048L676.380015,166.591725L676.343232,159.311748L678.232900,157.832343L678.316460,150.978021L680.747740,146.039863L684.558500,143.082935L680.080207,132.013719L677.506485,123.184824L681.039137,119.593004L681.931111,113.729155L675.950358,108.072047L676.205836,95.417881L678.858330,95.395174L674.389391,83.257419L670.275482,80.798229L669.285349,84.058015L666.513550,83.122854L659.105917,76.504967L660.906125,70.220358L660.084881,62.838858L661.234779,54.297307L655.986085,43.572068L653.724389,31.106858L646.686552,27.824993L642.559522,20.918085L633.104502,17.442240L632.115176,14.393936L627.769402,15.809032L624.837535,3.308648L621.482965,4.859853L621.580526,9.151231L619.678967,9.191043L618.010856,22.732902L615.929249,20.032395L611.600621,19.145677L604.518305,14.484083L599.858047,14.290157L609.304361,22.685973L601.474720,21.257723L590.900760,25.598052L593.547344,27.051273L598.935889,35.018089L595.834143,33.348975L592.070165,40.882199L592.137759,44.983449L587.734539,45.627793L587.188840,51.742034L592.632633,56.612400L603.754334,55.511821L614.193021,55.967578L622.349438,60.024761L621.326248,61.305306L627.781713,70.330320L631.785415,74.403630L637.106756,73.835256L638.480312,77.015823L635.730445,86.727096L632.463248,90.152482L634.712728,96.104364L634.510079,99.774054L625.984413,122.239527L634.986547,129.069466L635.043444,137.138580L632.093470,143.486411L622.396844,147.434350L594.682829,166.487842L591.398470,169.476407L583.958041,169.850411L580.859767,167.594755L569.933567,163.948812L568.523291,164.276205L563.547191,175.542156L550.396535,193.796794L544.376414,195.372873L541.684493,201.271013L543.693651,204.455798L541.414500,212.002886L534.715289,217.867096L536.553414,218.541329L533.084478,225.523758L529.676032,227.013793L526.414434,237.913909L528.388588,244.485060L523.983982,250.506112L523.468517,257.475978L520.779225,258.519416L520.977843,263.691706L518.793866,264.868559L520.026317,268.122971L517.680333,274.413967L517.926687,282.044861L512.528355,285.966246L512.135944,286.107278Z "/><path d="M511.889220,286.189651L505.273770,286.410007L500.863345,289.807222L495.875285,298.291022L498.962799,300.010301L494.593309,308.175406L494.758918,309.826781L500.865929,316.062016L496.971975,321.739981L494.270073,330.962702L493.649166,341.070480L490.359124,344.086322L468.085562,353.898545L467.894748,354.801333L457.418006,362.333450L462.471959,365.567587L462.528149,372.536916L459.915969,381.730479L459.967034,388.064402L450.863848,409.589514L452.152308,414.969589L451.667491,421.702993L450.194340,423.432254L441.967510,426.342045L433.985580,437.363955L427.856751,440.685836L418.783408,437.662181L412.922345,452.218013L403.583829,459.505217L396.813501,458.028241L393.755977,468.972183L395.754964,485.429816L395.758512,485.436636L398.832583,486.336869L397.838747,489.724216L410.169427,501.069483L412.193415,504.065090L417.659777,505.155421L421.860948,507.911427L433.438857,505.179432L434.993048,506.843369L434.158097,528.071555L439.160841,530.844745L442.305280,530.361892L442.499337,530.400114L445.898957,535.417008L451.341338,537.826133L464.030873,538.402142L481.134015,544.404351L495.915305,543.908014L496.140786,543.772785L496.740266,537.610598L499.956523,533.803886L502.355210,521.966763L505.792066,517.955012L506.864601,508.986685L511.661080,507.290699L514.577427,512.245877L528.960121,513.005343L530.808844,510.967845L543.547520,509.014473L546.561442,512.209493L545.998822,518.911418L549.536261,525.768760L552.634762,529.036912L560.626994,533.211142L561.189007,539.780505L573.152875,548.704300L584.528976,546.912762L586.551823,548.784503L591.166204,558.337295L594.425526,558.594317L594.566711,564.076883L597.539314,568.539435L603.620505,574.066164L607.512216,573.936532L609.473693,583.428961L605.964460,586.863687L607.361481,588.979446L614.056402,590.016611L625.455985,588.781237L628.843843,595.437769L641.499279,603.687550L646.706985,602.906886L654.675350,597.803484L666.861207,593.719466L677.582933,587.924933L685.961041,589.296489L696.015345,581.946098L695.979646,581.711737L714.134018,564.103295L717.305570,562.111030L718.831997,558.522255L731.768046,543.755374L731.049010,542.915126L728.750376,524.415668L719.724992,514.245456L713.770535,497.903235L713.918272,493.170528L693.819898,450.727069L691.225135,448.514356L684.176280,435.366660L671.139507,427.113460L665.411999,425.807393L663.033936,419.632018L656.424258,419.353216L625.730524,397.233712L621.824714,395.010296L619.191735,388.846153L616.039354,387.667092L608.232620,381.278420L609.484271,370.747627L600.473854,363.626008L597.429269,362.335330L594.997335,358.025830L583.581283,348.531076L575.557254,338.093861L570.407236,336.317432L573.775956,325.695580L585.171759,315.444340L588.826972,307.844273L591.969899,298.237981L592.086828,297.912154L594.054597,290.988334L593.252323,289.265975L581.660721,286.127298L576.159105,281.515884L571.372764,279.529393L566.170028,275.438676L546.394737,273.103534L541.793964,271.883901L535.391822,274.399912L529.712818,272.627645L527.777979,278.871614L540.527121,284.406044L532.992612,285.238051L527.370626,290.073796L526.440542,288.439003L513.673942,290.216862L512.135944,286.107278L511.889220,286.189651Z " data-region="Nord"/><path d="M395.754334,485.440429L390.723966,493.930529L391.691492,496.808030L390.779961,506.682237L383.442765,517.570536L377.948747,522.104422L375.290535,530.179854L370.207072,536.700884L371.376929,548.368429L369.963395,553.645447L363.349229,556.074180L361.153378,559.491293L362.085546,562.503451L360.529725,566.549811L357.088514,569.878370L354.989801,580.054207L357.876010,580.719027L355.016489,586.060065L357.471632,594.732794L356.382260,597.467104L348.359745,598.744082L347.173415,601.429024L330.729399,608.646126L329.667426,614.454821L325.082994,617.863434L326.768047,622.209993L325.876504,628.093586L327.328964,632.719985L323.588057,635.559618L324.042533,640.338353L317.442057,647.028518L314.664580,645.834070L310.041937,647.725398L310.826783,654.135625L303.787544,656.990848L295.966349,653.165902L293.247947,654.466001L287.493253,654.063990L287.664593,654.473982L287.229470,662.083564L286.246923,679.617642L287.601361,681.675034L287.687336,681.721603L287.690276,681.684298L292.219870,681.335838L298.398048,683.556348L295.097545,688.005225L295.975030,691.648479L294.317034,694.160840L298.094602,702.991059L294.252062,710.774710L294.296923,711.025483L294.982553,710.779331L318.075045,704.961805L326.252441,702.368528L338.459636,696.546019L342.635839,692.331927L352.528530,688.623933L354.528515,686.915653L363.223425,685.735051L363.614400,682.858901L369.713591,681.677638L370.391856,687.532746L379.046835,692.608734L388.167167,692.681436L398.714805,687.914646L416.275675,699.454903L420.556599,708.221541L457.912422,708.263858L459.541847,708.295913L461.172195,708.302836L555.737126,707.982517L558.921377,703.872270L564.179744,701.838262L573.089019,707.958426L606.287446,707.875189L614.513882,706.370710L615.705559,703.606966L615.691627,703.463149L618.794214,698.645190L624.714512,694.748988L631.689093,688.078089L648.724946,681.393887L655.811069,670.311430L654.855911,666.146436L670.563155,630.853302L674.406008,629.159340L674.164213,605.014035L681.121510,602.819352L682.206317,599.120542L689.655254,599.161269L696.570271,593.213135L696.328917,582.094684L696.015345,581.946098L685.961041,589.296489L677.582933,587.924933L666.861207,593.719466L654.675350,597.803484L646.706985,602.906886L641.499279,603.687550L628.843843,595.437769L625.455985,588.781237L614.056402,590.016611L607.361481,588.979446L605.964460,586.863687L609.473693,583.428961L607.512216,573.936532L603.620505,574.066164L597.539314,568.539435L594.566711,564.076883L594.425526,558.594317L591.166204,558.337295L586.551823,548.784503L584.528976,546.912762L573.152875,548.704300L561.189007,539.780505L560.626994,533.211142L552.634762,529.036912L549.536261,525.768760L545.998822,518.911418L546.561442,512.209493L543.547520,509.014473L530.808844,510.967845L528.960121,513.005343L514.577427,512.245877L511.661080,507.290699L506.864601,508.986685L505.792066,517.955012L502.355210,521.966763L499.956523,533.803886L496.740266,537.610598L496.140786,543.772785L495.915305,543.908014L481.134015,544.404351L464.030873,538.402142L451.341338,537.826133L445.898957,535.417008L442.499337,530.400114L442.305280,530.361892L439.160841,530.844745L434.158097,528.071555L434.993048,506.843369L433.438857,505.179432L421.860948,507.911427L417.659777,505.155421L412.193415,504.065090L410.169427,501.069483L397.838747,489.724216L398.832583,486.336869L395.758512,485.436636L395.754334,485.440429Z " data-region="Adamaoua"/><path d="M136.168661,654.838310L141.921114,668.412198L141.381509,670.519440L145.646030,681.200941L144.374608,690.224425L142.098665,691.346468L138.093591,698.728437L127.193233,704.810830L128.927328,709.341415L124.201181,717.135744L128.298560,719.051365L130.456697,722.199326L134.341079,722.343113L140.023859,725.568416L141.405701,729.891134L150.678912,734.840256L155.572387,736.206231L162.317987,733.580967L167.757131,736.401201L173.602024,737.613611L173.789756,737.568279L174.111532,737.494349L182.303160,731.980949L184.929136,731.885330L194.223326,738.164091L196.894337,735.806269L194.015321,731.623272L198.475222,727.519815L210.057825,728.178115L212.422517,725.759695L220.528534,725.858574L224.650462,730.747151L229.691568,725.209163L228.537335,720.459838L230.989726,715.015726L237.758713,704.035273L247.112274,706.805044L250.636767,710.103918L253.531967,706.082107L260.129796,706.443276L264.693300,703.574208L268.735005,692.577687L267.651932,683.917112L281.886120,684.507885L287.808357,681.834773L287.687336,681.721603L287.601361,681.675034L286.246923,679.617642L287.229470,662.083564L287.664593,654.473982L287.604004,654.466802L281.053952,654.238644L277.615477,651.399150L277.548858,642.971020L273.990040,635.180839L264.242685,637.901560L259.269578,635.493982L258.599091,629.741741L250.109350,623.604415L251.511747,614.344838L245.584736,608.907789L243.683119,609.821578L233.351541,600.307276L227.027588,597.710724L227.724806,596.216833L224.396553,588.905351L222.171843,607.765743L219.621757,613.082964L188.247106,616.818005L183.886689,611.381917L181.799848,601.471007L166.042715,615.851207L142.672403,629.203744L140.092443,641.108632L136.218774,654.747729L136.168661,654.838310Z " data-region="Nord-Ouest"/><path d="M294.296923,711.025483L294.229489,711.103692L295.684720,712.943946L294.669267,718.901496L294.984196,726.056969L299.813376,729.780980L296.974239,734.005355L288.046103,742.481736L289.154610,744.398295L286.423741,748.764723L289.348467,756.718780L286.493774,763.824097L284.810559,764.502823L274.583659,780.284383L275.687618,783.171321L275.612164,791.339554L269.054008,793.056330L261.142277,811.561456L262.663141,812.292323L260.656580,818.428117L253.844109,816.735491L248.270193,809.620279L241.513153,809.855335L235.408308,816.557830L218.877490,820.888841L218.733245,820.782640L217.725397,821.126682L214.520694,824.433194L200.170523,842.585350L207.557457,840.582263L213.269410,836.400630L215.654937,838.852725L212.644164,846.909574L205.964671,853.536417L205.365477,863.985182L211.221103,862.683055L213.987717,867.011378L215.286365,865.303485L222.737044,866.386705L230.549335,865.646170L236.741285,859.480127L239.931655,862.416641L243.513535,862.148081L244.859634,857.741271L245.109687,850.535770L247.277773,850.133408L258.600763,868.387273L261.496796,870.357755L264.624629,878.420891L275.400690,891.388587L258.313749,900.412528L252.010308,901.112563L250.087856,902.978061L235.996803,909.738695L236.342046,912.577168L230.948158,916.149406L230.504105,920.991329L233.092351,929.653963L231.476340,934.563209L226.829432,940.972625L224.031659,937.733348L215.049094,931.921139L210.593887,931.054597L203.135062,938.740656L203.017141,944.621123L199.833036,949.924016L198.360668,955.770615L189.950185,962.388254L188.543369,962.407026L188.407677,962.822825L195.301491,981.334459L220.974520,974.016681L242.738378,966.816490L248.305284,968.502144L252.868165,975.549732L262.386870,972.789810L262.798797,976.514167L270.310654,972.884165L273.736121,975.252904L275.177381,980.487502L277.206902,981.427024L279.012821,990.250125L284.601857,993.249230L286.484166,1001.447267L288.968658,1004.640498L293.120101,1002.282312L308.462937,1000.680063L309.348033,1001.675036L318.536316,1002.017342L325.330631,1001.113557L330.503126,997.462032L336.908241,996.299423L343.332554,985.848907L354.070042,977.226379L358.237495,966.972799L363.432700,970.284063L367.335034,971.069575L369.209946,974.110740L383.480383,981.768867L387.954178,982.481715L391.657098,980.904382L396.632839,965.512251L411.341723,953.345869L415.023990,947.133922L420.124078,945.586782L423.435184,951.211584L424.386966,957.109061L426.830555,960.651309L427.012159,960.872023L427.268415,960.184582L430.838947,952.566453L432.557677,942.777927L425.806137,934.470626L423.446745,933.589051L419.974708,924.244875L424.008047,924.993868L429.203269,920.696468L451.308176,906.179657L446.147895,900.840745L449.380988,899.227006L449.255071,878.041876L455.392041,874.846745L458.857902,860.128043L469.438752,854.952243L472.505144,851.089876L481.066950,855.722046L488.947516,856.280069L493.196528,854.042086L494.730381,846.348695L493.713725,841.516768L495.291439,840.411240L495.956017,829.206638L492.566684,825.525054L490.798990,819.234662L477.859424,817.610991L475.785387,815.718815L477.437359,806.948935L471.439618,797.799911L461.839565,788.827009L451.887751,782.075570L453.199902,780.908323L467.543261,777.032139L475.539729,763.648880L478.448568,753.481664L474.499028,748.337747L471.448156,738.894348L464.093822,727.016884L457.838995,718.408728L459.650567,708.844136L459.541847,708.295913L457.912422,708.263858L420.556599,708.221541L416.275675,699.454903L398.714805,687.914646L388.167167,692.681436L379.046835,692.608734L370.391856,687.532746L369.713591,681.677638L363.614400,682.858901L363.223425,685.735051L354.528515,686.915653L352.528530,688.623933L342.635839,692.331927L338.459636,696.546019L326.252441,702.368528L318.075045,704.961805L294.982553,710.779331L294.296923,711.025483Z " data-region="Centre"/><path d="M173.789756,737.568279L173.669010,737.691349L160.402935,756.407139L157.596628,771.019140L150.003374,775.916503L149.946384,776.087779L149.968208,776.193606L148.765032,783.152968L153.471700,784.325476L155.025113,782.349743L157.542484,784.508286L164.760261,787.007864L165.557982,792.965896L164.614164,797.896843L172.398177,809.302682L173.429988,812.299191L180.923552,814.619253L186.812750,808.243194L187.693496,800.476542L194.417856,804.461282L197.418648,800.134223L203.383665,802.538742L203.162628,806.507619L207.459735,814.897701L211.954711,814.696604L209.557989,819.333611L218.684697,820.708434L218.733245,820.782640L218.877490,820.888841L235.408308,816.557830L241.513153,809.855335L248.270193,809.620279L253.844109,816.735491L260.656580,818.428117L262.663141,812.292323L261.142277,811.561456L269.054008,793.056330L275.612164,791.339554L275.687618,783.171321L274.583659,780.284383L284.810559,764.502823L286.493774,763.824097L289.348467,756.718780L286.423741,748.764723L289.154610,744.398295L288.046103,742.481736L296.974239,734.005355L299.813376,729.780980L294.984196,726.056969L294.669267,718.901496L295.684720,712.943946L294.229489,711.103692L294.296923,711.025483L294.252062,710.774710L298.094602,702.991059L294.317034,694.160840L295.975030,691.648479L295.097545,688.005225L298.398048,683.556348L292.219870,681.335838L287.690276,681.684298L287.687336,681.721603L287.808357,681.834773L281.886120,684.507885L267.651932,683.917112L268.735005,692.577687L264.693300,703.574208L260.129796,706.443276L253.531967,706.082107L250.636767,710.103918L247.112274,706.805044L237.758713,704.035273L230.989726,715.015726L228.537335,720.459838L229.691568,725.209163L224.650462,730.747151L220.528534,725.858574L212.422517,725.759695L210.057825,728.178115L198.475222,727.519815L194.015321,731.623272L196.894337,735.806269L194.223326,738.164091L184.929136,731.885330L182.303160,731.980949L174.111532,737.494349L173.789756,737.568279Z " data-region="Ouest"/><path d="M459.541847,708.295913L459.650567,708.844136L457.838995,718.408728L464.093822,727.016884L471.448156,738.894348L474.499028,748.337747L478.448568,753.481664L475.539729,763.648880L467.543261,777.032139L453.199902,780.908323L451.887751,782.075570L461.839565,788.827009L471.439618,797.799911L477.437359,806.948935L475.785387,815.718815L477.859424,817.610991L490.798990,819.234662L492.566684,825.525054L495.956017,829.206638L495.291439,840.411240L493.713725,841.516768L494.730381,846.348695L493.196528,854.042086L488.947516,856.280069L481.066950,855.722046L472.505144,851.089876L469.438752,854.952243L458.857902,860.128043L455.392041,874.846745L449.255071,878.041876L449.380988,899.227006L446.147895,900.840745L451.308176,906.179657L429.203269,920.696468L424.008047,924.993868L419.974708,924.244875L423.446745,933.589051L425.806137,934.470626L432.557677,942.777927L430.838947,952.566453L427.268415,960.184582L427.012159,960.872023L426.841246,961.429740L424.945784,975.436693L447.616500,999.430666L448.181078,1016.288605L451.366178,1024.999337L458.785520,1028.023718L470.001528,1026.900729L472.182353,1029.508372L482.804706,1031.657081L484.207952,1029.436334L491.483241,1030.770654L492.132117,1028.878356L498.239054,1033.117080L502.470776,1031.647027L507.556211,1036.090203L510.058708,1033.639641L520.032806,1038.151006L523.785025,1036.007779L525.912115,1030.296241L536.144075,1025.079890L541.345918,1100.075758L543.085572,1100.082927L604.036555,1099.878371L605.539799,1100.817262L611.287848,1098.267717L616.448685,1098.864256L619.858092,1102.740794L635.848755,1096.754490L641.787010,1104.077426L648.618463,1104.487551L652.885171,1110.431616L656.951558,1110.988775L663.130231,1108.144231L667.706428,1113.001275L674.029321,1116.113227L674.982949,1113.627006L680.498621,1117.494198L686.064440,1119.143544L693.991436,1114.078694L706.862477,1118.127112L712.784089,1126.152549L726.082059,1119.470365L731.521521,1121.541477L755.108758,1126.261952L757.714046,1129.747164L770.537819,1139.177314L774.631085,1140.406544L781.867828,1140.568642L780.754698,1144.559817L785.203289,1152.096414L790.510811,1147.387558L794.022325,1148.251839L792.247284,1135.420664L784.368483,1115.975259L787.798415,1107.834802L788.029942,1096.015896L793.895961,1098.447086L798.145990,1094.972903L795.333788,1090.541514L796.362360,1088.764388L793.548432,1079.870220L786.092447,1069.079839L786.657107,1059.478484L786.074662,1053.477297L787.003675,1045.619904L784.006597,1035.268417L787.902621,1032.315958L785.415977,1022.897778L782.213145,1016.516557L770.698669,1010.252674L764.800451,1004.079876L758.538945,1004.279873L726.658219,967.688926L701.362198,941.600176L686.885736,918.021282L683.656876,910.158287L690.181010,908.332911L694.100089,904.976024L689.816317,901.535347L686.949716,893.896339L684.021103,880.128900L677.081974,869.261893L669.763267,867.376090L664.008756,863.768512L654.704977,856.369924L647.996475,849.762995L646.974241,846.503240L646.144505,827.998006L642.476428,811.151840L642.109291,802.758120L643.691214,799.983277L641.057324,789.555132L627.346906,780.957695L629.338875,779.026278L630.458652,772.943273L634.546705,767.203268L634.337498,763.090829L637.509294,757.713254L634.948677,753.870280L633.487451,748.373062L636.755960,738.702141L635.692371,722.824108L636.378507,719.277406L633.994939,715.506890L625.537441,718.756122L622.423084,715.566763L620.392149,710.479192L615.774933,704.180937L615.705559,703.606966L614.513882,706.370710L606.287446,707.875189L573.089019,707.958426L564.179744,701.838262L558.921377,703.872270L555.737126,707.982517L461.172195,708.302836L459.541847,708.295913Z " data-region="Est"/><path d="M117.175177,914.579433L116.565838,911.366788L112.420444,912.300914L112.966195,915.050083L117.175177,914.579433Z M107.602065,909.843666L103.222018,916.369176L103.043310,917.356173L97.136975,920.813478L97.957877,921.585449L109.808250,922.705902L109.026997,914.066635L107.774809,909.879069L107.602065,909.843666Z M109.606122,909.736314L108.319244,910.820162L109.296108,912.744954L113.001161,907.639815L113.345547,907.253526L111.787947,906.040400L110.952482,906.341680L109.128524,909.416726L109.606122,909.736314Z M149.893193,776.026111L141.851737,783.118123L138.846695,782.397570L147.852630,803.849700L150.960484,807.847915L143.762598,808.484038L140.504319,818.371342L140.611402,823.596064L135.148343,830.818069L133.556634,838.790014L127.717083,844.310920L124.185157,849.039799L119.332906,851.452424L113.331639,864.849113L113.990107,869.466966L109.561425,876.533740L109.641468,879.783601L106.212263,884.226017L105.746399,891.542214L109.350472,892.809587L115.362794,892.206358L119.050808,899.069893L119.197725,901.518904L114.414787,906.443781L114.648158,906.855896L116.967074,909.913617L124.451026,911.160890L127.748887,909.482559L131.733819,911.626953L127.083436,918.277978L140.805166,918.681301L132.171486,921.954225L140.165409,926.500646L139.738294,931.889106L136.856712,927.859406L133.305785,929.338338L134.050524,933.882541L127.038738,925.855740L124.436411,931.272089L125.903206,936.469327L119.562690,931.364604L129.629956,949.826982L129.346756,959.391065L140.827680,968.535787L149.889216,978.597046L155.022290,987.751567L155.185367,988.363908L158.663369,987.591813L168.622191,980.411495L170.716246,973.750105L171.907601,964.659641L176.621620,956.328234L184.845953,954.586439L188.353995,961.762417L188.543369,962.407026L189.950185,962.388254L198.360668,955.770615L199.833036,949.924016L203.017141,944.621123L203.135062,938.740656L210.593887,931.054597L215.049094,931.921139L224.031659,937.733348L226.829432,940.972625L231.476340,934.563209L233.092351,929.653963L230.504105,920.991329L230.948158,916.149406L236.342046,912.577168L235.996803,909.738695L250.087856,902.978061L252.010308,901.112563L258.313749,900.412528L275.400690,891.388587L264.624629,878.420891L261.496796,870.357755L258.600763,868.387273L247.277773,850.133408L245.109687,850.535770L244.859634,857.741271L243.513535,862.148081L239.931655,862.416641L236.741285,859.480127L230.549335,865.646170L222.737044,866.386705L215.286365,865.303485L213.987717,867.011378L211.221103,862.683055L205.365477,863.985182L205.964671,853.536417L212.644164,846.909574L215.654937,838.852725L213.269410,836.400630L207.557457,840.582263L200.170523,842.585350L214.520694,824.433194L217.725397,821.126682L218.733245,820.782640L218.684697,820.708434L209.557989,819.333611L211.954711,814.696604L207.459735,814.897701L203.162628,806.507619L203.383665,802.538742L197.418648,800.134223L194.417856,804.461282L187.693496,800.476542L186.812750,808.243194L180.923552,814.619253L173.429988,812.299191L172.398177,809.302682L164.614164,797.896843L165.557982,792.965896L164.760261,787.007864L157.542484,784.508286L155.025113,782.349743L153.471700,784.325476L148.765032,783.152968L149.968208,776.193606L149.946384,776.087779L149.893193,776.026111Z " data-region="Littoral"/><path d="M188.543369,962.407026L188.353995,961.762417L184.845953,954.586439L176.621620,956.328234L171.907601,964.659641L170.716246,973.750105L168.622191,980.411495L158.663369,987.591813L155.185367,988.363908L155.183786,988.364085L162.067176,1005.777940L160.099223,1012.975648L155.320365,1018.959173L152.613924,1030.503226L153.012799,1035.901672L149.977891,1043.884445L146.283296,1059.033742L145.711631,1065.866063L147.613354,1083.698340L147.149435,1087.762512L148.695374,1091.934813L155.172731,1097.025696L158.060708,1096.819535L168.015328,1100.370705L182.279741,1100.878959L214.762411,1099.687934L266.615161,1099.911130L266.859967,1100.174634L303.624545,1100.119273L303.676129,1094.258151L305.395689,1093.199278L306.262447,1087.671216L332.244584,1086.995998L335.286359,1085.817907L343.291464,1087.603487L343.759622,1090.234934L382.103309,1087.999033L390.130631,1089.486176L394.486090,1092.333252L406.796553,1090.453980L414.652134,1091.827989L423.355296,1091.931565L428.102706,1090.180923L445.088768,1094.905782L453.120358,1091.998994L461.470373,1093.515593L464.458685,1091.785313L473.509356,1091.908990L475.116770,1093.584983L486.922009,1089.179288L494.409928,1091.631852L497.165632,1090.023055L502.348484,1096.587389L502.118339,1099.530312L514.213732,1100.128368L538.540313,1100.061795L541.345918,1100.075758L536.144075,1025.079890L525.912115,1030.296241L523.785025,1036.007779L520.032806,1038.151006L510.058708,1033.639641L507.556211,1036.090203L502.470776,1031.647027L498.239054,1033.117080L492.132117,1028.878356L491.483241,1030.770654L484.207952,1029.436334L482.804706,1031.657081L472.182353,1029.508372L470.001528,1026.900729L458.785520,1028.023718L451.366178,1024.999337L448.181078,1016.288605L447.616500,999.430666L424.945784,975.436693L426.841246,961.429740L427.012159,960.872023L426.830555,960.651309L424.386966,957.109061L423.435184,951.211584L420.124078,945.586782L415.023990,947.133922L411.341723,953.345869L396.632839,965.512251L391.657098,980.904382L387.954178,982.481715L383.480383,981.768867L369.209946,974.110740L367.335034,971.069575L363.432700,970.284063L358.237495,966.972799L354.070042,977.226379L343.332554,985.848907L336.908241,996.299423L330.503126,997.462032L325.330631,1001.113557L318.536316,1002.017342L309.348033,1001.675036L308.462937,1000.680063L293.120101,1002.282312L288.968658,1004.640498L286.484166,1001.447267L284.601857,993.249230L279.012821,990.250125L277.206902,981.427024L275.177381,980.487502L273.736121,975.252904L270.310654,972.884165L262.798797,976.514167L262.386870,972.789810L252.868165,975.549732L248.305284,968.502144L242.738378,966.816490L220.974520,974.016681L195.301491,981.334459L188.407677,962.822825L188.543369,962.407026Z " data-region="Sud"/><path d="M97.136975,920.813478L103.043310,917.356173L103.222018,916.369176L107.602065,909.843666L108.046211,909.902796L108.754128,910.054223L108.939736,909.937700L109.056654,909.676106L109.128524,909.416726L110.952482,906.341680L111.787947,906.040400L113.345547,907.253526L113.603952,907.191382L114.209969,906.753852L114.414601,906.444063L114.414787,906.443781L119.197725,901.518904L119.050808,899.069893L115.362794,892.206358L109.350472,892.809587L105.746399,891.542214L106.212263,884.226017L109.641468,879.783601L109.561425,876.533740L113.990107,869.466966L113.331639,864.849113L119.332906,851.452424L124.185157,849.039799L127.717083,844.310920L133.556634,838.790014L135.148343,830.818069L140.611402,823.596064L140.504319,818.371342L143.762598,808.484038L150.960484,807.847915L147.852630,803.849700L138.846695,782.397570L141.851737,783.118123L149.893193,776.026111L149.946384,776.087779L150.003374,775.916503L157.596628,771.019140L160.402935,756.407139L173.669010,737.691349L173.789756,737.568279L173.602024,737.613611L167.757131,736.401201L162.317987,733.580967L155.572387,736.206231L150.678912,734.840256L141.405701,729.891134L140.023859,725.568416L134.341079,722.343113L130.456697,722.199326L128.298560,719.051365L124.201181,717.135744L128.927328,709.341415L127.193233,704.810830L138.093591,698.728437L142.098665,691.346468L144.374608,690.224425L145.646030,681.200941L141.381509,670.519440L141.921114,668.412198L136.168661,654.838310L135.840826,655.030854L116.817803,662.266100L111.356851,661.671306L108.246573,675.062440L99.193970,671.483034L98.113742,677.537213L93.533746,684.388954L81.225477,693.925053L79.679901,697.934068L62.679911,712.622026L55.080209,717.171515L48.083915,724.650586L50.952682,730.660632L46.786381,736.996165L47.068673,740.023369L54.960383,749.944274L52.564444,756.533399L46.325206,765.497345L46.940128,774.322092L44.723074,780.140543L44.918825,790.473387L40.327960,798.299021L37.639819,799.062853L30.811529,809.609844L32.143542,810.388969L22.732568,822.462863L25.140970,828.004335L18.037934,830.184492L14.725909,836.427094L11.917060,854.647213L12.626801,860.070318L19.974179,862.453514L32.793256,862.138583L33.711888,859.570836L29.362230,854.044758L27.909921,844.409036L26.015149,840.389925L26.870483,837.296390L32.015828,848.137190L32.818067,852.432677L39.924136,857.735906L48.105017,853.661804L44.307409,847.555328L46.704421,847.418061L51.146677,852.368362L51.613052,859.851881L56.490027,855.619073L51.176390,867.007511L57.243104,885.868383L62.005681,890.999891L61.725970,899.891985L60.517322,902.028793L75.928626,911.269403L82.906653,910.884795L87.412600,918.119688L92.480412,912.725491L96.972946,920.622759L97.136975,920.813478Z " data-region="Sud-Ouest"/></g></svg>