<?xml version="1.0" ?><!DOCTYPE svg  PUBLIC '-//W3C//DTD SVG 1.1//EN'  'http://www.w3.org/Graphics/SVG/1.1/DTD/svg11.dtd'><svg enable_background="new 0 0 800 1160" height="1160px" style="stroke-linejoin: round; stroke:#000; fill:#f6f3f0;" version="1.1" viewBox="0 0 800 1160" width="800px" xmlns="http://www.w3.org/2000/svg" xmlns:xlink="http://www.w3.org/1999/xlink"><defs><style type="text/css"><![CDATA[path { fill-rule: evenodd; }
#context path { fill: #eee; stroke: #bbb; } ]]></style></defs><metadata><views><view h="1160.7768055" padding="0" w="800"><proj id="laea" lat0="7.25" lon0="12.3"/><bbox h="139.64" w="96.32" x="951.84" y="930.06"/><llbbox lat0="1.6" lat1="12.9" lon0="8.4" lon1="16.2"/></view></views></metadata><g id="departements"><path d="M617.489309,152.351019L618.351596,156.423719L617.308908,165.468875L619.563712,176.011226L619.241364,181.032450L620.893392,183.635337L621.179302,183.904599L621.280044,183.999493L625.909009,179.821692L640.709474,192.066754L650.863682,192.408608L651.591017,192.387776L651.594338,192.387820L661.845012,186.533584L672.913087,195.002899L676.400194,195.458126L676.166079,195.112426L680.614654,190.795358L682.510031,186.114641L680.889698,178.107102L678.489801,175.344048L676.380015,166.591725L676.343232,159.311748L678.232900,157.832343L678.316460,150.978021L680.747740,146.039863L684.558500,143.082935L680.080207,132.013719L677.506485,123.184824L681.039137,119.593004L681.931111,113.729155L675.950358,108.072047L676.205836,95.417881L678.858330,95.395174L674.389391,83.257419L670.275482,80.798229L669.285349,84.058015L666.513550,83.122854L659.105917,76.504967L660.906125,70.220358L660.084881,62.838858L661.234779,54.297307L655.986085,43.572068L653.724389,31.106858L646.686552,27.824993L642.559522,20.918085L633.104502,17.442240L632.115176,14.393936L627.769402,15.809032L624.837535,3.308648L621.482965,4.859853L621.580526,9.151231L619.678967,9.191043L618.010856,22.732902L615.929249,20.032395L611.600621,19.145677L604.518305,14.484083L599.858047,14.290157L609.304361,22.685973L601.474720,21.257723L590.900760,25.598052L593.547344,27.051273L598.935889,35.018089L595.834143,33.348975L592.070165,40.882199L592.137759,44.983449L587.734539,45.627793L587.188840,51.742034L592.632633,56.612400L603.754334,55.511821L614.193021,55.967578L622.349438,60.024761L621.326248,61.305306L627.781713,70.330320L631.785415,74.403630L637.106756,73.835256L638.480312,77.015823L635.730445,86.727096L632.463248,90.152482L634.712728,96.104364L634.510079,99.774054L625.984413,122.239527L634.986547,129.069466L635.043444,137.138580L632.093470,143.486411L622.396844,147.434350L617.684871,152.315883L617.489309,152.351019Z " data-departemen="Logone-et-Chari"/><path d="M616.871148,152.461872L606.541023,159.624642L587.570102,170.902915L580.859767,167.594755L569.933567,163.948812L568.523291,164.276205L558.633125,181.530255L558.722157,181.939995L566.874389,188.889355L569.250884,201.988587L572.478997,207.554189L572.714543,211.559940L577.153301,216.866290L577.623044,216.779489L578.107602,216.689992L583.852492,218.454282L590.170406,212.290161L593.047319,211.231751L599.730838,202.064768L601.410525,202.359696L614.560692,193.296345L620.905665,184.045838L621.179302,183.904599L620.893392,183.635337L619.241364,181.032450L619.563712,176.011226L617.308908,165.468875L618.351596,156.423719L617.489309,152.351019L616.871148,152.461872Z " data-departemen="Mayo-Sava"/><path d="M621.179302,183.904599L620.905665,184.045838L614.560692,193.296345L601.410525,202.359696L599.730838,202.064768L593.047319,211.231751L590.170406,212.290161L583.852492,218.454282L578.107602,216.689992L577.623044,216.779489L577.710685,217.102179L574.824428,229.958248L578.066662,232.086390L576.952087,239.666870L580.314660,240.855322L580.594171,248.009902L575.421595,251.434265L569.466591,252.788699L568.943614,258.579281L566.402382,268.635651L567.200090,274.994281L567.569647,275.243867L567.727329,275.158012L571.372764,279.529393L575.514255,281.010016L576.212827,280.831060L576.300603,280.702889L576.931635,262.518668L582.710406,261.479980L599.660702,248.059146L613.498536,241.936378L625.957827,250.342361L640.526500,249.623390L644.986223,244.371989L647.177141,233.083545L650.255464,230.590323L650.260942,229.572739L651.196523,207.195564L650.656260,203.027317L652.149554,195.472408L651.591017,192.387776L650.863682,192.408608L640.709474,192.066754L625.909009,179.821692L621.280044,183.999493L621.179302,183.904599Z " data-departemen="Diamaré"/><path d="M558.874831,182.256317L550.396535,193.796794L544.376414,195.372873L541.684493,201.271013L543.693651,204.455798L541.414500,212.002886L534.715289,217.867096L536.553414,218.541329L533.084478,225.523758L529.676032,227.013793L526.414434,237.913909L528.388588,244.485060L523.983982,250.506112L523.468517,257.475978L520.779225,258.519416L520.977843,263.691706L518.793866,264.868559L520.026317,268.122971L517.680333,274.413967L517.926687,282.044861L512.528355,285.966246L512.135944,286.107278L513.673942,290.216862L526.440542,288.439003L527.370626,290.073796L532.992612,285.238051L540.527121,284.406044L527.777979,278.871614L529.712818,272.627645L535.391822,274.399912L541.793964,271.883901L546.394737,273.103534L566.925676,275.348946L567.569647,275.243867L567.200090,274.994281L566.402382,268.635651L568.943614,258.579281L569.466591,252.788699L575.421595,251.434265L580.594171,248.009902L580.314660,240.855322L576.952087,239.666870L578.066662,232.086390L574.824428,229.958248L577.710685,217.102179L577.623044,216.779489L577.153301,216.866290L572.714543,211.559940L572.478997,207.554189L569.250884,201.988587L566.874389,188.889355L558.722157,181.939995L558.874831,182.256317Z " data-departemen="Mayo-Tsanaga"/><path d="M651.591017,192.387776L652.149554,195.472408L650.656260,203.027317L651.196523,207.195564L650.260942,229.572739L650.255464,230.590323L650.255224,230.631676L652.850102,232.234722L653.041211,235.626035L670.384743,255.839741L661.184967,264.545703L658.399281,266.280722L665.000665,277.462066L663.835899,277.572576L660.605784,290.292039L652.468041,304.542724L658.073298,302.979222L675.698738,301.324315L678.431712,303.336865L683.489486,299.354053L698.079082,298.920961L709.192451,301.685257L714.123849,304.374899L725.922862,302.165522L740.608533,296.723262L723.986228,287.894178L708.061636,268.323097L703.394233,265.461427L692.929769,246.622725L691.035071,246.037532L686.388789,238.197125L687.523089,234.708905L685.495943,225.526949L681.264438,219.928308L678.812995,213.511469L681.160839,208.972851L680.477879,202.826943L676.590046,195.908914L676.400194,195.458126L672.913087,195.002899L661.845012,186.533584L651.594338,192.387820L651.591017,192.387776Z " data-departemen="Mayo-Danay"/><path d="M650.255464,230.590323L647.177141,233.083545L644.986223,244.371989L640.526500,249.623390L625.957827,250.342361L613.498536,241.936378L599.660702,248.059146L582.710406,261.479980L576.931635,262.518668L576.300603,280.702889L576.212827,280.831060L576.240015,281.189718L578.863552,287.154588L581.660721,286.127298L593.252323,289.265975L594.054597,290.988334L592.086828,297.912154L592.325788,298.030409L618.205434,297.889720L638.829722,302.120752L652.392568,304.722851L652.468041,304.542724L660.605784,290.292039L663.835899,277.572576L665.000665,277.462066L658.399281,266.280722L661.184967,264.545703L670.384743,255.839741L653.041211,235.626035L652.850102,232.234722L650.255224,230.631676L650.255464,230.590323Z " data-departemen="Mayo-Kani"/><path d="M511.889220,286.189651L505.273770,286.410007L495.778882,294.549020L495.867306,298.266390L495.875285,298.291022L503.269071,298.357366L508.945971,301.175898L518.881355,300.256850L528.594993,307.300299L530.803414,318.854671L532.685789,319.375649L535.959498,328.265817L535.414631,333.048127L541.186899,341.585136L544.437801,340.507676L546.972540,342.524942L553.498513,340.920308L562.333688,335.152493L569.146762,334.973172L569.494875,334.122298L573.775956,325.695580L585.171759,315.444340L588.826972,307.844273L591.969899,298.237981L592.086828,297.912154L594.054597,290.988334L593.252323,289.265975L581.660721,286.127298L578.863552,287.154588L576.240015,281.189718L576.212827,280.831060L575.514255,281.010016L571.372764,279.529393L567.727329,275.158012L567.569647,275.243867L566.925676,275.348946L546.394737,273.103534L541.793964,271.883901L535.391822,274.399912L529.712818,272.627645L527.777979,278.871614L540.527121,284.406044L532.992612,285.238051L527.370626,290.073796L526.440542,288.439003L513.673942,290.216862L512.135944,286.107278L511.889220,286.189651Z " data-departemen="Mayo-Louti"/><path d="M496.217232,298.893448L494.758918,309.826781L500.865929,316.062016L496.971975,321.739981L494.270073,330.962702L493.649166,341.070480L490.359124,344.086322L468.085562,353.898545L467.894748,354.801333L457.418006,362.333450L462.471959,365.567587L462.338513,375.292072L462.327537,375.324195L462.331171,385.212908L463.631373,385.672186L465.987559,393.557290L464.662309,399.668861L459.154389,409.036204L458.450321,411.689181L458.281141,426.724042L459.891119,429.494119L465.610710,422.235271L471.157403,422.636905L483.045039,431.235456L485.458782,430.187829L519.385665,439.448999L519.998180,454.096960L515.476701,460.502673L511.967915,460.569502L511.457077,466.430926L511.621347,467.110588L511.972934,467.162561L520.743936,464.899342L525.419056,461.949608L533.430953,453.187473L533.697152,448.134401L540.243389,436.850484L537.630816,429.429521L538.840680,425.861001L550.850043,419.494235L554.771653,409.743180L554.112560,406.847804L550.221718,404.451970L557.280611,396.765336L555.604529,394.330806L562.014369,393.880975L568.110501,384.056756L570.106665,375.590788L573.709661,376.836076L584.987507,374.429918L594.429513,373.623440L593.393243,370.384372L600.473854,363.626008L600.168112,363.730923L598.929302,363.949885L589.833053,352.869457L583.581283,348.531076L575.557254,338.093861L570.121313,335.789373L569.146762,334.973172L562.333688,335.152493L553.498513,340.920308L546.972540,342.524942L544.437801,340.507676L541.186899,341.585136L535.414631,333.048127L535.959498,328.265817L532.685789,319.375649L530.803414,318.854671L528.594993,307.300299L518.881355,300.256850L508.945971,301.175898L503.269071,298.357366L495.875285,298.291022L496.217232,298.893448Z " data-departemen="Bénoué"/><path d="M600.473854,363.626008L593.393243,370.384372L594.429513,373.623440L584.987507,374.429918L573.709661,376.836076L570.106665,375.590788L568.110501,384.056756L562.014369,393.880975L555.604529,394.330806L557.280611,396.765336L550.221718,404.451970L554.112560,406.847804L554.771653,409.743180L550.850043,419.494235L538.840680,425.861001L537.630816,429.429521L540.243389,436.850484L533.697152,448.134401L533.430953,453.187473L525.419056,461.949608L520.743936,464.899342L511.972934,467.162561L511.621347,467.110588L511.438344,467.218973L503.592594,485.147484L495.388515,487.693633L492.772584,492.823887L487.564188,494.216585L477.826050,491.078846L472.429750,485.605004L471.496208,488.372659L475.658067,496.336327L475.462875,497.948582L487.355168,505.340409L498.586128,506.924115L503.897723,506.447119L504.064248,506.207531L504.332256,506.087499L512.280516,507.246908L517.961727,512.530242L528.960121,513.005343L530.808844,510.967845L543.547520,509.014473L546.561442,512.209493L545.998822,518.911418L549.536261,525.768760L552.634762,529.036912L560.626994,533.211142L561.189007,539.780505L573.152875,548.704300L584.528976,546.912762L586.551823,548.784503L591.166204,558.337295L594.425526,558.594317L594.566711,564.076883L597.539314,568.539435L603.620505,574.066164L607.512216,573.936532L609.473693,583.428961L605.964460,586.863687L607.361481,588.979446L614.056402,590.016611L625.455985,588.781237L630.534677,598.799283L630.136404,599.437089L630.553676,599.388689L636.920341,598.470017L638.414008,603.153422L646.706985,602.906886L654.675350,597.803484L666.861207,593.719466L677.582933,587.924933L685.961041,589.296489L696.015345,581.946098L695.979646,581.711737L714.134018,564.103295L717.305570,562.111030L718.831997,558.522255L731.768046,543.755374L731.049010,542.915126L728.750376,524.415668L719.724992,514.245456L713.770535,497.903235L713.918272,493.170528L693.819898,450.727069L691.225135,448.514356L684.176280,435.366660L671.139507,427.113460L665.411999,425.807393L663.033936,419.632018L656.424258,419.353216L625.730524,397.233712L621.824714,395.010296L619.191735,388.846153L616.039354,387.667092L608.232620,381.278420L609.087462,374.221411L603.008156,363.418899L601.445436,363.292700L600.473854,363.626008Z " data-departemen="Mayo-Rey"/><path d="M462.226117,375.621093L459.915969,381.730479L459.967034,388.064402L450.863848,409.589514L452.152308,414.969589L451.667491,421.702993L450.194340,423.432254L441.967510,426.342045L433.985580,437.363955L427.856751,440.685836L418.783408,437.662181L412.922345,452.218013L403.583829,459.505217L396.813501,458.028241L393.755977,468.972183L395.754964,485.429816L395.758512,485.436636L398.832583,486.336869L397.838747,489.724216L410.169427,501.069483L412.193415,504.065090L417.659777,505.155421L421.860948,507.911427L433.438857,505.179432L434.993048,506.843369L434.158097,528.071555L439.160841,530.844745L444.873684,530.510569L445.898957,535.417008L451.341338,537.826133L464.030873,538.402142L485.347890,545.188954L495.562967,543.941944L495.915305,543.908014L496.140786,543.772785L496.740266,537.610598L499.956523,533.803886L502.355210,521.966763L505.792066,517.955012L506.864601,508.986685L504.183848,506.428518L504.064248,506.207531L503.897723,506.447119L498.586128,506.924115L487.355168,505.340409L475.462875,497.948582L475.658067,496.336327L471.496208,488.372659L472.429750,485.605004L477.826050,491.078846L487.564188,494.216585L492.772584,492.823887L495.388515,487.693633L503.592594,485.147484L511.438344,467.218973L511.621347,467.110588L511.457077,466.430926L511.967915,460.569502L515.476701,460.502673L519.998180,454.096960L519.385665,439.448999L485.458782,430.187829L483.045039,431.235456L471.157403,422.636905L465.610710,422.235271L459.891119,429.494119L458.281141,426.724042L458.450321,411.689181L459.154389,409.036204L464.662309,399.668861L465.987559,393.557290L463.631373,385.672186L462.331171,385.212908L462.327537,375.324195L462.226117,375.621093Z " data-departemen="Faro"/><path d="M395.754334,485.440429L390.723966,493.930529L391.691492,496.808030L390.779961,506.682237L383.442765,517.570536L377.948747,522.104422L375.290535,530.179854L370.207072,536.700884L371.376929,548.368429L369.963395,553.645447L363.349229,556.074180L361.153378,559.491293L362.085546,562.503451L360.529725,566.549811L357.088514,569.878370L357.021905,573.164786L353.785833,578.392721L357.625483,580.465268L357.876010,580.719027L361.103560,581.660725L367.256106,579.955243L371.758642,582.779002L376.735262,580.526520L385.034071,586.204756L389.743247,600.949113L389.963408,607.706065L390.242085,607.842632L390.262778,608.112091L402.977199,618.664022L414.322958,617.763964L419.975482,607.000271L422.899625,605.907594L424.886090,599.890435L432.995785,606.137971L438.168416,604.890128L442.107854,606.214552L456.483094,607.441071L458.208165,609.165365L458.341589,609.190739L458.547935,609.019899L458.987580,605.183015L455.022680,601.541070L454.232705,592.124584L457.570775,587.366921L459.893434,587.004666L465.282976,579.896360L470.605390,577.856732L472.823952,569.246733L482.003333,564.534951L486.148348,558.239580L484.612208,554.994234L490.061964,547.236485L495.809797,547.421541L495.760669,544.291832L495.915305,543.908014L495.562967,543.941944L485.347890,545.188954L464.030873,538.402142L451.341338,537.826133L445.898957,535.417008L444.873684,530.510569L439.160841,530.844745L434.158097,528.071555L434.993048,506.843369L433.438857,505.179432L421.860948,507.911427L417.659777,505.155421L412.193415,504.065090L410.169427,501.069483L397.838747,489.724216L398.832583,486.336869L395.758512,485.436636L395.754334,485.440429Z " data-departemen="Faro-et-Déo"/><path d="M504.064248,506.207531L504.183848,506.428518L506.864601,508.986685L505.792066,517.955012L502.355210,521.966763L499.956523,533.803886L496.740266,537.610598L496.140786,543.772785L495.915305,543.908014L495.760669,544.291832L495.809797,547.421541L490.061964,547.236485L484.612208,554.994234L486.148348,558.239580L482.003333,564.534951L472.823952,569.246733L470.605390,577.856732L465.282976,579.896360L459.893434,587.004666L457.570775,587.366921L454.232705,592.124584L455.022680,601.541070L458.987580,605.183015L458.547935,609.019899L458.341589,609.190739L458.596498,609.216968L461.992092,620.625885L458.591831,629.468749L462.791373,629.949755L472.469024,621.358310L479.238368,620.646809L482.116983,624.151030L490.942110,628.159968L495.424393,627.872491L501.025448,630.892969L506.251534,631.844873L508.038925,638.713571L511.503533,643.503044L511.599819,643.625910L511.750837,643.501145L521.586427,646.633017L525.908322,644.596093L539.224557,654.304409L552.345748,650.632152L562.909809,641.576431L563.841315,639.182603L558.620212,629.908088L560.175945,626.736690L565.635674,628.336839L569.862887,631.912964L576.653240,628.441341L588.222247,620.185941L591.689638,618.427103L607.035382,622.916392L608.446274,622.193580L616.420086,624.114870L620.333629,621.523561L628.149733,618.727202L634.732010,619.992178L640.556664,608.777078L636.316280,606.215870L630.074825,599.583075L630.136404,599.437089L630.534677,598.799283L625.455985,588.781237L614.056402,590.016611L607.361481,588.979446L605.964460,586.863687L609.473693,583.428961L607.512216,573.936532L603.620505,574.066164L597.539314,568.539435L594.566711,564.076883L594.425526,558.594317L591.166204,558.337295L586.551823,548.784503L584.528976,546.912762L573.152875,548.704300L561.189007,539.780505L560.626994,533.211142L552.634762,529.036912L549.536261,525.768760L545.998822,518.911418L546.561442,512.209493L543.547520,509.014473L530.808844,510.967845L528.960121,513.005343L517.961727,512.530242L512.280516,507.246908L504.332256,506.087499L504.064248,506.207531Z " data-departemen="Vina"/><path d="M696.015345,581.946098L685.961041,589.296489L677.582933,587.924933L666.861207,593.719466L654.675350,597.803484L646.706985,602.906886L638.414008,603.153422L636.920341,598.470017L630.553676,599.388689L630.136404,599.437089L630.074825,599.583075L636.316280,606.215870L640.556664,608.777078L634.732010,619.992178L628.149733,618.727202L620.333629,621.523561L616.420086,624.114870L608.446274,622.193580L607.035382,622.916392L591.689638,618.427103L588.222247,620.185941L576.653240,628.441341L569.862887,631.912964L565.635674,628.336839L560.175945,626.736690L558.620212,629.908088L563.841315,639.182603L562.909809,641.576431L552.345748,650.632152L539.224557,654.304409L525.908322,644.596093L521.586427,646.633017L511.750837,643.501145L511.599819,643.625910L511.793892,643.651612L507.279222,650.918710L502.021695,656.690553L501.083398,661.023725L505.044592,672.012699L503.955164,673.435959L507.188780,686.484960L507.203528,690.041694L511.944415,701.093905L509.956286,702.671011L508.495966,707.946677L508.479988,708.069228L511.981984,708.061888L555.737126,707.982517L558.921377,703.872270L573.089019,707.958426L606.287446,707.875189L614.513882,706.370710L615.705559,703.606966L615.691627,703.463149L618.794214,698.645190L624.714512,694.748988L631.689093,688.078089L648.724946,681.393887L655.811069,670.311430L654.855911,666.146436L670.563155,630.853302L674.406008,629.159340L674.164213,605.014035L681.121510,602.819352L682.206317,599.120542L689.655254,599.161269L696.570271,593.213135L696.328917,582.094684L696.015345,581.946098Z " data-departemen="Mbéré"/><path d="M357.765431,580.877321L355.016489,586.060065L357.471632,594.732794L356.382260,597.467104L348.359745,598.744082L347.173415,601.429024L330.729399,608.646126L329.667426,614.454821L325.082994,617.863434L326.768047,622.209993L325.876504,628.093586L327.328964,632.719985L323.588057,635.559618L324.042533,640.338353L317.442057,647.028518L314.664580,645.834070L310.041937,647.725398L310.826783,654.135625L303.787544,656.990848L295.966349,653.165902L293.247947,654.466001L287.493253,654.063990L287.664593,654.473982L287.229470,662.083564L286.246923,679.617642L287.601361,681.675034L287.687336,681.721603L287.690276,681.684298L292.219870,681.335838L298.398048,683.556348L295.097545,688.005225L295.975030,691.648479L294.317034,694.160840L298.094602,702.991059L294.252062,710.774710L294.296923,711.025483L294.982553,710.779331L318.075045,704.961805L326.252441,702.368528L338.459636,696.546019L342.635839,692.331927L352.528530,688.623933L354.528515,686.915653L363.223425,685.735051L363.614400,682.858901L369.713591,681.677638L369.774173,681.928303L369.961259,681.965698L377.529610,674.971901L375.739759,667.751267L381.662098,661.829425L383.131276,662.108323L383.753671,652.382652L374.872075,645.995657L374.114298,633.567181L377.006425,631.971309L375.762872,627.091379L382.663006,626.331056L385.383083,623.204501L385.445152,619.459877L389.867458,607.926827L390.242085,607.842632L389.963408,607.706065L389.743247,600.949113L385.034071,586.204756L376.735262,580.526520L371.758642,582.779002L367.256106,579.955243L361.103560,581.660725L357.876010,580.719027L357.765431,580.877321Z " data-departemen="Mayo-Banyo"/><path d="M207.837150,614.788510L209.798871,619.501105L212.232230,634.728288L212.256340,634.767654L212.291084,634.824576L212.470075,639.153083L218.297182,645.306734L219.345583,659.517857L223.901805,660.855459L223.918867,660.839887L224.000709,660.765301L226.965846,658.915396L237.507343,667.711293L243.177015,667.817430L245.625187,671.997447L262.265371,680.682685L272.957468,684.966352L272.957362,684.983019L273.125256,685.084474L281.886120,684.507885L282.433248,682.982572L287.808357,681.834773L287.687336,681.721603L287.601361,681.675034L286.246923,679.617642L287.229470,662.083564L287.664593,654.473982L287.604004,654.466802L281.053952,654.238644L277.615477,651.399150L277.548858,642.971020L273.990040,635.180839L264.242685,637.901560L259.269578,635.493982L258.599091,629.741741L250.109350,623.604415L251.511747,614.344838L245.584736,608.907789L243.683119,609.821578L233.351541,600.307276L227.027588,597.710724L227.724806,596.216833L224.396553,588.905351L222.171843,607.765743L219.621757,613.082964L207.992208,614.772529L207.837150,614.788510Z " data-departemen="Donga-Mantung"/><path d="M390.242085,607.842632L389.867458,607.926827L385.445152,619.459877L385.383083,623.204501L382.663006,626.331056L375.762872,627.091379L377.006425,631.971309L374.114298,633.567181L374.872075,645.995657L383.753671,652.382652L383.131276,662.108323L381.662098,661.829425L375.739759,667.751267L377.529610,674.971901L369.961259,681.965698L369.774173,681.928303L369.772408,682.209910L368.542547,685.049280L379.046835,692.608734L388.167167,692.681436L398.714805,687.914646L416.275675,699.454903L420.556599,708.221541L457.912422,708.263858L459.541847,708.295913L461.172195,708.302836L473.186224,708.116874L487.644420,708.091594L507.326348,708.071611L508.479988,708.069228L508.495966,707.946677L509.956286,702.671011L511.944415,701.093905L507.203528,690.041694L507.188780,686.484960L503.955164,673.435959L505.044592,672.012699L501.083398,661.023725L502.021695,656.690553L507.279222,650.918710L511.793892,643.651612L511.599819,643.625910L511.503533,643.503044L508.038925,638.713571L506.251534,631.844873L501.025448,630.892969L495.424393,627.872491L490.942110,628.159968L482.116983,624.151030L479.238368,620.646809L472.469024,621.358310L462.791373,629.949755L458.591831,629.468749L461.992092,620.625885L458.596498,609.216968L458.341589,609.190739L458.208165,609.165365L456.483094,607.441071L442.107854,606.214552L438.168416,604.890128L432.995785,606.137971L424.886090,599.890435L422.899625,605.907594L419.975482,607.000271L414.322958,617.763964L402.977199,618.664022L390.262778,608.112091L390.242085,607.842632Z " data-departemen="Djérem"/><path d="M136.168661,654.838310L141.921114,668.412198L141.381509,670.519440L145.375891,680.665291L145.491322,680.884307L145.568793,680.757364L149.450297,681.313524L150.079422,684.171570L156.737107,684.940208L156.910335,684.872764L156.776979,684.793386L157.723611,680.489953L159.972671,680.892680L165.582018,676.618712L170.601031,679.496682L173.106023,683.820877L173.237832,683.818297L173.277067,683.779361L176.556331,681.254590L177.340791,677.376963L182.836397,669.800632L190.319527,673.633920L196.452450,673.227039L195.550575,666.129788L197.596111,665.619181L199.971864,658.186553L202.814013,653.343138L201.113855,643.507498L212.250834,634.807968L212.256340,634.767654L212.232230,634.728288L209.798871,619.501105L207.837150,614.788510L207.684312,614.805366L188.247106,616.818005L183.886689,611.381917L181.799848,601.471007L166.042715,615.851207L142.672403,629.203744L140.092443,641.108632L136.218774,654.747729L136.168661,654.838310Z " data-departemen="Menchum"/><path d="M212.256340,634.767654L212.250834,634.807968L201.113855,643.507498L202.814013,653.343138L199.971864,658.186553L197.596111,665.619181L195.550575,666.129788L196.452450,673.227039L190.319527,673.633920L182.836397,669.800632L177.340791,677.376963L176.556331,681.254590L173.277067,683.779361L173.237832,683.818297L173.244914,683.852684L173.774390,689.756761L176.651311,691.335244L182.597525,690.083496L200.667862,697.521155L200.891122,697.650248L201.015626,697.592249L203.637070,694.501785L205.889394,693.411355L209.724482,692.211462L209.816954,692.190599L209.897381,692.173939L209.369539,684.258809L214.253137,678.210913L217.300769,677.594177L216.380874,673.416660L223.593666,663.510308L223.922405,660.887788L223.918867,660.839887L223.901805,660.855459L219.345583,659.517857L218.297182,645.306734L212.470075,639.153083L212.291084,634.824576L212.256340,634.767654Z " data-departemen="Boyo"/><path d="M46.940128,774.322092L53.983081,775.965271L54.776502,777.493077L58.394073,773.959067L59.891948,767.777815L68.932609,768.522103L72.986390,769.838431L78.021477,769.249494L81.921995,778.471723L81.933557,778.635606L82.211273,778.662898L93.023795,777.160997L97.772049,780.186101L102.937794,776.719801L133.961164,759.894027L142.244917,761.291771L142.478363,761.337075L142.534373,761.337441L153.326319,749.720055L151.800778,748.758905L156.354921,742.306890L156.641026,735.992458L156.576418,735.777360L156.391591,735.797280L154.097367,736.169522L141.405701,729.891134L140.023859,725.568416L134.341079,722.343113L130.456697,722.199326L128.298560,719.051365L124.201181,717.135744L128.927328,709.341415L127.193233,704.810830L138.093591,698.728437L145.535390,680.996729L145.491322,680.884307L145.375891,680.665291L141.381509,670.519440L141.921114,668.412198L136.168661,654.838310L135.840826,655.030854L116.817803,662.266100L111.356851,661.671306L108.246573,675.062440L99.193970,671.483034L98.113742,677.537213L93.533746,684.388954L81.225477,693.925053L79.679901,697.934068L62.679911,712.622026L55.080209,717.171515L48.083915,724.650586L50.952682,730.660632L46.786381,736.996165L47.068673,740.023369L54.960383,749.944274L52.564444,756.533399L46.325206,765.497345L46.718445,774.265596L46.940128,774.322092Z " data-departemen="Manyu"/><path d="M223.918867,660.839887L223.922405,660.887788L223.593666,663.510308L216.380874,673.416660L217.300769,677.594177L214.253137,678.210913L209.369539,684.258809L209.897381,692.173939L209.816954,692.190599L209.811753,692.249387L209.587193,696.017371L213.099867,697.322520L216.988113,695.586095L222.680064,702.576497L224.089199,700.451148L227.863502,703.108010L232.803713,709.903918L232.926252,709.984830L232.927340,709.985590L239.482986,704.641975L247.112274,706.805044L250.636767,710.103918L253.531967,706.082107L260.129796,706.443276L264.693300,703.574208L266.682258,697.871090L267.298950,683.931921L272.931831,685.011730L272.957362,684.983019L272.957468,684.966352L262.265371,680.682685L245.625187,671.997447L243.177015,667.817430L237.507343,667.711293L226.965846,658.915396L224.000709,660.765301L223.918867,660.839887Z " data-departemen="Bui"/><path d="M156.910335,684.872764L156.966777,684.867416L167.643923,694.530111L171.622786,714.388742L163.462551,718.408802L162.571216,725.843113L163.582010,734.400453L163.582232,734.564681L163.712442,734.771456L165.145589,736.511605L167.757131,736.401201L173.602024,737.613611L173.789756,737.568279L174.111532,737.494349L182.303160,731.980949L184.929136,731.885330L194.223326,738.164091L196.894337,735.806269L194.015321,731.623272L197.662448,728.274278L197.718863,728.215877L197.632930,728.134435L191.712906,716.730087L203.545404,713.351773L201.727949,706.824727L204.392859,704.180191L200.992721,697.751378L200.891122,697.650248L200.667862,697.521155L182.597525,690.083496L176.651311,691.335244L173.774390,689.756761L173.244914,683.852684L173.237832,683.818297L173.106023,683.820877L170.601031,679.496682L165.582018,676.618712L159.972671,680.892680L157.723611,680.489953L156.776979,684.793386L156.910335,684.872764Z " data-departemen="Mezam"/><path d="M145.491322,680.884307L145.535390,680.996729L138.093591,698.728437L127.193233,704.810830L128.927328,709.341415L124.201181,717.135744L128.298560,719.051365L130.456697,722.199326L134.341079,722.343113L140.023859,725.568416L141.405701,729.891134L154.097367,736.169522L156.391591,735.797280L156.576418,735.777360L156.605936,735.774197L157.699425,735.492140L163.471715,734.419592L163.582232,734.564681L163.582010,734.400453L162.571216,725.843113L163.462551,718.408802L171.622786,714.388742L167.643923,694.530111L156.966777,684.867416L156.910335,684.872764L156.737107,684.940208L150.079422,684.171570L149.450297,681.313524L145.568793,680.757364L145.491322,680.884307Z " data-departemen="Momo"/><path d="M369.774173,681.928303L369.713591,681.677638L363.614400,682.858901L363.223425,685.735051L354.528515,686.915653L352.528530,688.623933L342.635839,692.331927L338.459636,696.546019L326.252441,702.368528L318.075045,704.961805L294.982553,710.779331L294.296923,711.025483L294.229489,711.103692L295.684720,712.943946L294.669267,718.901496L294.984196,726.056969L299.813376,729.780980L296.974239,734.005355L288.046103,742.481736L289.154610,744.398295L286.423741,748.764723L289.348467,756.718780L286.493774,763.824097L284.810559,764.502823L274.583659,780.284383L275.001945,786.282570L274.900649,786.855441L286.551201,786.923161L294.110313,784.687834L300.102646,793.077952L306.075721,805.264650L302.646107,813.000264L302.592949,823.434130L297.363485,831.080143L300.635733,835.082527L304.379946,837.080089L307.023942,840.650637L309.059595,851.817616L303.618373,856.600246L295.640263,872.290773L295.585041,873.131690L295.979617,873.015223L300.641280,867.715851L307.840164,862.160105L312.251661,861.980456L319.194659,868.129495L322.958760,874.042947L336.359295,877.190008L338.577063,875.280903L339.515699,874.965472L340.701801,872.727403L345.045082,862.364751L349.485574,860.556684L353.208182,849.391315L354.396313,848.047844L361.340573,848.012749L364.692575,845.886235L366.136518,839.683591L369.904894,838.231965L367.930329,835.125163L368.797490,826.198127L371.638854,826.791264L380.938690,825.586736L388.062213,821.196481L397.315848,819.600744L401.799604,814.666111L402.503499,810.604017L410.080161,802.370678L412.345816,802.882557L424.442100,788.685554L431.641036,787.268792L450.848917,782.317814L451.887751,782.075570L453.199902,780.908323L467.543261,777.032139L475.539729,763.648880L478.448568,753.481664L474.499028,748.337747L471.448156,738.894348L464.093822,727.016884L457.838995,718.408728L459.650567,708.844136L459.541847,708.295913L457.912422,708.263858L420.556599,708.221541L416.275675,699.454903L398.714805,687.914646L388.167167,692.681436L379.046835,692.608734L368.542547,685.049280L369.772408,682.209910L369.774173,681.928303Z " data-departemen="Mbam-et-Kim"/><path d="M272.957362,684.983019L272.931831,685.011730L267.298950,683.931921L266.682258,697.871090L264.693300,703.574208L260.129796,706.443276L253.531967,706.082107L250.636767,710.103918L247.112274,706.805044L239.482986,704.641975L232.927340,709.985590L232.926252,709.984830L232.918350,710.288804L228.537335,720.459838L229.691568,725.209163L223.408998,728.796893L223.408070,728.779058L223.254796,728.959618L218.741902,737.775394L212.465667,745.597484L219.567168,750.852993L219.630287,750.885228L219.676478,750.901728L222.765866,752.496884L221.883426,760.968133L218.974663,765.228856L218.903539,765.319068L218.903162,765.324798L216.659577,770.993970L223.740891,777.235123L225.551445,782.355516L225.651276,782.353694L225.693893,782.341678L228.550655,785.591201L232.385564,784.942976L236.090782,793.095492L237.597371,791.325568L241.940728,792.493254L242.502586,794.809614L249.853530,807.083831L252.492848,806.930111L253.852877,816.221051L253.756311,816.469816L253.819303,816.562944L262.663141,812.292323L261.142277,811.561456L269.054008,793.056330L272.575574,792.738274L274.841523,787.189565L274.900649,786.855441L275.001945,786.282570L274.583659,780.284383L284.810559,764.502823L286.493774,763.824097L289.348467,756.718780L286.423741,748.764723L289.154610,744.398295L288.046103,742.481736L296.974239,734.005355L299.813376,729.780980L294.984196,726.056969L294.669267,718.901496L295.684720,712.943946L294.229489,711.103692L294.296923,711.025483L294.252062,710.774710L298.094602,702.991059L294.317034,694.160840L295.975030,691.648479L295.097545,688.005225L298.398048,683.556348L292.219870,681.335838L287.690276,681.684298L287.687336,681.721603L287.808357,681.834773L282.433248,682.982572L281.886120,684.507885L273.125256,685.084474L272.957362,684.983019Z " data-departemen="Noun"/><path d="M508.479988,708.069228L507.326348,708.071611L487.644420,708.091594L473.186224,708.116874L461.172195,708.302836L459.541847,708.295913L459.650567,708.844136L457.838995,718.408728L464.093822,727.016884L471.448156,738.894348L474.499028,748.337747L478.448568,753.481664L475.539729,763.648880L467.543261,777.032139L453.199902,780.908323L451.887751,782.075570L453.449630,783.122969L471.439618,797.799911L477.437359,806.948935L475.785387,815.718815L477.859424,817.610991L490.798990,819.234662L492.566684,825.525054L495.956017,829.206638L496.215277,832.226591L493.713725,841.516768L494.241232,843.034508L493.028419,856.375775L493.129768,856.700429L493.870674,856.691222L518.262905,858.804299L540.604298,870.542110L541.704602,873.037727L548.122517,878.128791L548.418923,878.361875L551.741658,877.765121L572.559223,873.858434L567.833497,864.990364L569.133767,848.584773L573.132523,846.792596L587.563426,844.624055L588.468280,842.881807L600.064503,833.697212L598.127419,833.018597L599.996475,821.747980L613.904395,813.162422L614.625612,814.483213L625.615205,802.130126L623.584101,792.189649L620.148623,787.135399L620.739758,783.977595L626.898390,781.378944L627.030724,781.175926L632.261914,768.559221L634.546705,767.203268L634.337498,763.090829L637.509294,757.713254L634.948677,753.870280L633.487451,748.373062L636.755960,738.702141L635.692371,722.824108L636.378507,719.277406L633.994939,715.506890L625.537441,718.756122L622.423084,715.566763L620.392149,710.479192L615.774933,704.180937L615.705559,703.606966L614.513882,706.370710L606.287446,707.875189L573.089019,707.958426L558.921377,703.872270L555.737126,707.982517L511.981984,708.061888L508.479988,708.069228Z " data-departemen="Lom-et-Djérem"/><path d="M209.816954,692.190599L209.724482,692.211462L205.889394,693.411355L203.637070,694.501785L201.015626,697.592249L200.891122,697.650248L200.992721,697.751378L204.392859,704.180191L201.727949,706.824727L203.545404,713.351773L191.712906,716.730087L197.632930,728.134435L197.718863,728.215877L198.068951,727.887261L210.057825,728.178115L212.422517,725.759695L219.152750,724.942905L223.401773,728.659822L223.408070,728.779058L223.408998,728.796893L229.691568,725.209163L228.537335,720.459838L232.918350,710.288804L232.926252,709.984830L232.803713,709.903918L227.863502,703.108010L224.089199,700.451148L222.680064,702.576497L216.988113,695.586095L213.099867,697.322520L209.587193,696.017371L209.811753,692.249387L209.816954,692.190599Z " data-departemen="Ngo-Ketunjia"/><path d="M197.718863,728.215877L197.662448,728.274278L194.015321,731.623272L196.894337,735.806269L194.223326,738.164091L184.929136,731.885330L182.303160,731.980949L174.111532,737.494349L173.789756,737.568279L173.669010,737.691349L174.778790,744.282792L174.297325,744.599533L174.018731,744.781574L174.057464,744.863585L179.196634,754.772881L185.236015,758.797102L199.110477,756.049421L199.467391,756.000211L199.604164,755.925118L201.349515,749.857856L206.223526,748.906010L219.590864,750.970773L219.630287,750.885228L219.567168,750.852993L212.465667,745.597484L218.741902,737.775394L223.254796,728.959618L223.408070,728.779058L223.401773,728.659822L219.152750,724.942905L212.422517,725.759695L210.057825,728.178115L198.068951,727.887261L197.718863,728.215877Z " data-departemen="Bamboutos"/><path d="M163.582232,734.564681L163.471715,734.419592L157.699425,735.492140L156.605936,735.774197L156.576418,735.777360L156.641026,735.992458L156.354921,742.306890L151.800778,748.758905L153.326319,749.720055L142.534373,761.337441L142.478363,761.337075L142.479210,761.438484L145.114383,771.529498L152.139718,770.374824L155.944672,772.533352L156.000346,772.592542L156.160114,772.318971L161.277697,759.608244L160.378502,751.853462L170.330963,745.149826L173.878150,745.089524L174.018731,744.781574L174.297325,744.599533L174.778790,744.282792L173.669010,737.691349L173.789756,737.568279L173.602024,737.613611L167.757131,736.401201L165.145589,736.511605L163.712442,734.771456L163.582232,734.564681Z " data-departemen="Lebialem"/><path d="M174.018731,744.781574L173.878150,745.089524L170.330963,745.149826L160.378502,751.853462L161.277697,759.608244L156.160114,772.318971L156.000346,772.592542L155.988089,772.603815L153.076763,774.249677L150.994444,775.236483L150.003374,775.916503L149.946384,776.087779L149.968208,776.193606L148.765032,783.152968L153.471700,784.325476L155.025113,782.349743L157.542484,784.508286L162.383543,785.159201L166.066886,792.384385L166.075358,792.381137L166.166936,792.345812L169.078718,790.792851L177.234779,783.946438L190.462818,771.880635L190.655987,771.848444L190.695745,771.814069L196.667257,769.236358L198.776298,767.149126L199.896920,763.808230L199.963434,763.721400L199.971001,763.614399L198.995813,760.480887L198.654004,758.966477L199.547904,756.972163L199.467391,756.000211L199.110477,756.049421L185.236015,758.797102L179.196634,754.772881L174.057464,744.863585L174.018731,744.781574Z " data-departemen="Menoua"/><path d="M199.467391,756.000211L199.547904,756.972163L198.654004,758.966477L198.995813,760.480887L199.971001,763.614399L199.963434,763.721400L200.063019,763.752885L201.963751,763.193761L202.586003,765.271176L204.509273,767.371357L204.561226,767.406649L204.745671,767.532101L207.555642,765.682142L206.742102,764.272733L218.862435,765.267349L218.903539,765.319068L218.974663,765.228856L221.883426,760.968133L222.765866,752.496884L219.676478,750.901728L219.630287,750.885228L219.590864,750.970773L206.223526,748.906010L201.349515,749.857856L199.604164,755.925118L199.467391,756.000211Z " data-departemen="Mifi"/><path d="M142.478363,761.337075L142.244917,761.291771L133.961164,759.894027L102.937794,776.719801L97.772049,780.186101L93.023795,777.160997L82.211273,778.662898L81.933557,778.635606L81.937783,778.695469L88.078212,786.168822L89.853153,786.438738L96.935808,798.688619L97.056810,798.821819L97.270092,798.989971L105.278173,799.738789L108.650776,810.155861L114.805194,814.459179L110.856365,825.643011L116.538463,829.844733L114.716721,840.750233L118.547741,841.004966L121.350203,843.572258L120.520028,850.343052L120.499982,850.448353L120.663230,850.434669L128.812072,846.558424L127.717083,844.310920L133.556634,838.790014L135.148343,830.818069L140.611402,823.596064L140.504319,818.371342L143.762598,808.484038L150.960484,807.847915L147.852630,803.849700L138.846695,782.397570L141.851737,783.118123L149.893193,776.026111L149.946384,776.087779L150.003374,775.916503L150.994444,775.236483L153.076763,774.249677L155.988089,772.603815L156.000346,772.592542L155.944672,772.533352L152.139718,770.374824L145.114383,771.529498L142.479210,761.438484L142.478363,761.337075Z " data-departemen="Kupé-Manengouba"/><path d="M199.963434,763.721400L199.896920,763.808230L198.776298,767.149126L196.667257,769.236358L190.695745,771.814069L190.655987,771.848444L190.661396,771.847549L191.796209,779.109635L190.445984,782.003200L199.339495,790.706318L201.046426,795.676003L201.058614,795.676427L201.199761,795.681805L203.069263,792.811099L210.383298,790.145307L210.225033,785.517366L210.224468,785.515568L209.451020,785.510826L205.773759,782.833184L208.307921,777.671457L204.011439,767.953610L204.561226,767.406649L204.509273,767.371357L202.586003,765.271176L201.963751,763.193761L200.063019,763.752885L199.963434,763.721400Z " data-departemen="Hauts-Plateaux"/><path d="M204.561226,767.406649L204.011439,767.953610L208.307921,777.671457L205.773759,782.833184L209.451020,785.510826L210.224468,785.515568L210.165213,785.333196L217.694035,786.504053L217.761066,782.741769L225.688519,782.439705L225.651276,782.353694L225.551445,782.355516L223.740891,777.235123L216.659577,770.993970L218.903162,765.324798L218.903539,765.319068L218.862435,765.267349L206.742102,764.272733L207.555642,765.682142L204.745671,767.532101L204.561226,767.406649Z " data-departemen="Koung-Khi"/><path d="M46.630940,775.038108L44.447832,787.723581L44.918825,790.473387L40.327960,798.299021L37.639819,799.062853L30.811529,809.609844L32.143542,810.388969L22.732568,822.462863L25.140970,828.004335L18.037934,830.184492L14.725909,836.427094L11.917060,854.647213L12.626801,860.070318L19.974179,862.453514L32.793256,862.138583L33.711888,859.570836L29.362230,854.044758L27.909921,844.409036L26.015149,840.389925L26.870483,837.296390L32.015828,848.137190L32.818067,852.432677L39.924136,857.735906L48.105017,853.661804L44.307409,847.555328L46.704421,847.418061L51.146677,852.368362L51.613052,859.851881L56.490027,855.619073L51.176390,867.007511L51.377450,871.888428L54.124617,876.089025L57.085550,885.438387L57.273247,885.171521L57.719949,884.201476L58.628947,883.456747L59.284963,881.599653L59.304724,881.587648L59.295648,881.573777L60.077864,878.332672L66.321530,872.920680L70.225077,871.867363L74.724857,867.547136L74.956810,860.274406L71.270735,856.892202L79.194989,849.354425L87.713994,843.169936L85.280578,832.196750L91.349452,824.238429L90.574668,812.328783L88.709341,807.795141L96.982660,798.968735L97.056810,798.821819L96.935808,798.688619L89.853153,786.438738L88.078212,786.168822L81.937783,778.695469L81.933557,778.635606L81.921995,778.471723L78.021477,769.249494L72.986390,769.838431L68.932609,768.522103L59.891948,767.777815L58.394073,773.959067L54.776502,777.493077L53.983081,775.965271L46.940128,774.322092L46.630940,775.038108Z " data-departemen="Ndian"/><path d="M190.655987,771.848444L190.462818,771.880635L177.234779,783.946438L169.078718,790.792851L166.166936,792.345812L166.075358,792.381137L166.100394,792.398204L166.402462,802.874209L172.805269,806.479298L172.916010,811.648413L176.184808,816.648612L176.186184,816.649314L176.316772,816.717277L180.554128,818.405177L186.812750,808.243194L187.693496,800.476542L194.417856,804.461282L197.418648,800.134223L203.266765,802.260324L203.368463,802.361444L203.422892,802.207376L203.910034,799.009607L202.397347,798.059301L201.136521,795.794425L201.058614,795.676427L201.046426,795.676003L199.339495,790.706318L190.445984,782.003200L191.796209,779.109635L190.661396,771.847549L190.655987,771.848444Z " data-departemen="Haut-Nkam"/><path d="M149.893193,776.026111L141.851737,783.118123L138.846695,782.397570L147.852630,803.849700L150.960484,807.847915L143.762598,808.484038L140.504319,818.371342L140.611402,823.596064L135.148343,830.818069L133.556634,838.790014L127.717083,844.310920L128.812072,846.558424L120.663230,850.434669L120.499982,850.448353L120.448398,850.446959L117.875517,853.353016L113.331639,864.849113L113.990107,869.466966L111.935952,873.631463L111.829018,873.632909L111.820834,873.808811L106.212263,884.226017L105.746399,891.542214L109.350472,892.809587L115.362794,892.206358L119.050808,899.069893L119.197725,901.518904L114.700151,904.548217L114.617725,904.729099L114.911682,904.785881L123.362886,902.512408L124.475851,900.604530L135.656611,899.287286L140.720278,889.796223L140.798948,889.335140L141.021521,888.960408L143.466187,883.846864L144.933203,867.000677L141.137231,866.896307L142.315819,860.566219L140.474240,850.641541L141.896724,848.817346L159.757766,844.176565L164.007301,837.011329L168.106397,837.069248L171.382009,833.147844L169.835016,829.145589L176.161206,816.695363L176.186184,816.649314L176.184808,816.648612L172.916010,811.648413L172.805269,806.479298L166.402462,802.874209L166.100394,792.398204L166.075358,792.381137L166.066886,792.384385L162.383543,785.159201L157.542484,784.508286L155.025113,782.349743L153.471700,784.325476L148.765032,783.152968L149.968208,776.193606L149.946384,776.087779L149.893193,776.026111Z " data-departemen="Moungo"/><path d="M626.898390,781.378944L620.739758,783.977595L620.148623,787.135399L623.584101,792.189649L625.615205,802.130126L614.625612,814.483213L613.904395,813.162422L599.996475,821.747980L598.127419,833.018597L600.064503,833.697212L588.468280,842.881807L587.563426,844.624055L573.132523,846.792596L569.133767,848.584773L567.833497,864.990364L572.559223,873.858434L551.741658,877.765121L548.418923,878.361875L548.125802,878.824930L523.545023,908.546221L527.306752,913.994115L524.525365,919.274702L533.684650,921.195818L541.991853,925.213946L546.514035,925.007074L552.610657,927.417643L554.567894,929.987249L563.369805,932.477112L566.322514,936.708932L566.911244,940.299618L570.180959,942.273132L571.801384,945.853779L614.697250,939.726587L616.577296,939.474388L618.663408,939.386923L643.149551,937.594072L660.919170,924.549949L669.422742,924.669901L683.656876,910.158287L685.651587,909.286833L694.100089,904.976024L689.816317,901.535347L686.949716,893.896339L684.021103,880.128900L677.081974,869.261893L669.763267,867.376090L664.008756,863.768512L654.704977,856.369924L647.996475,849.762995L646.974241,846.503240L646.144505,827.998006L642.476428,811.151840L642.109291,802.758120L643.691214,799.983277L641.057324,789.555132L635.354670,787.530262L627.047781,781.455057L626.898390,781.378944Z " data-departemen="Kadey"/><path d="M451.887751,782.075570L450.848917,782.317814L431.641036,787.268792L424.442100,788.685554L412.345816,802.882557L410.080161,802.370678L402.503499,810.604017L401.799604,814.666111L397.315848,819.600744L388.062213,821.196481L380.938690,825.586736L371.638854,826.791264L368.797490,826.198127L367.930329,835.125163L369.904894,838.231965L366.136518,839.683591L364.692575,845.886235L361.340573,848.012749L354.396313,848.047844L353.208182,849.391315L349.485574,860.556684L345.045082,862.364751L340.701801,872.727403L339.515699,874.965472L340.217592,875.187754L341.438654,875.328319L342.085206,878.564545L341.991406,880.837364L341.904439,881.577899L343.188091,881.927427L358.371706,886.534076L364.998271,885.469536L368.701091,891.898273L374.229914,892.986234L376.599697,891.276543L384.682082,891.155676L386.189922,894.758546L380.250500,902.770087L381.002747,908.808990L381.402879,909.780130L382.037755,909.941443L387.357909,902.006274L397.128131,898.933883L419.152011,876.325574L436.594930,873.367636L447.759026,878.919588L449.255071,878.041876L453.303568,875.901957L455.392041,874.846745L458.857902,860.128043L469.438752,854.952243L472.505144,851.089876L484.274519,856.920950L492.826020,856.723648L493.129768,856.700429L493.028419,856.375775L494.241232,843.034508L493.713725,841.516768L496.215277,832.226591L495.956017,829.206638L492.566684,825.525054L490.798990,819.234662L477.859424,817.610991L475.785387,815.718815L477.437359,806.948935L471.439618,797.799911L453.449630,783.122969L451.887751,782.075570Z " data-departemen="Haute-Sanaga"/><path d="M225.651276,782.353694L225.688519,782.439705L217.761066,782.741769L217.694035,786.504053L210.165213,785.333196L210.224468,785.515568L210.225033,785.517366L210.383298,790.145307L203.069263,792.811099L201.199761,795.681805L201.058614,795.676427L201.136521,795.794425L202.397347,798.059301L203.910034,799.009607L203.422892,802.207376L203.368463,802.361444L203.374657,802.396565L202.815808,808.534743L208.074101,810.149567L207.459735,814.897701L211.954711,814.696604L209.557989,819.333611L218.684697,820.708434L218.733245,820.782640L218.877490,820.888841L235.408308,816.557830L235.712023,815.273222L248.270193,809.620279L252.204056,813.021590L253.723386,816.421128L253.756311,816.469816L253.852877,816.221051L252.492848,806.930111L249.853530,807.083831L242.502586,794.809614L241.940728,792.493254L237.597371,791.325568L236.090782,793.095492L232.385564,784.942976L228.550655,785.591201L225.693893,782.341678L225.651276,782.353694Z " data-departemen="Ndé"/><path d="M274.900649,786.855441L274.841523,787.189565L272.575574,792.738274L269.054008,793.056330L261.142277,811.561456L262.663141,812.292323L253.819303,816.562944L253.756311,816.469816L253.723386,816.421128L252.204056,813.021590L248.270193,809.620279L235.712023,815.273222L235.408308,816.557830L218.877490,820.888841L218.733245,820.782640L217.725397,821.126682L214.520694,824.433194L200.170523,842.585350L207.557457,840.582263L213.269410,836.400630L215.654937,838.852725L212.644164,846.909574L205.964671,853.536417L205.365477,863.985182L211.221103,862.683055L213.987717,867.011378L215.286365,865.303485L222.737044,866.386705L225.758857,864.504664L230.269276,865.669096L230.549335,865.646170L231.052658,865.404086L236.741285,859.480127L239.931655,862.416641L243.513535,862.148081L244.859634,857.741271L245.109687,850.535770L247.277773,850.133408L258.600763,868.387273L261.496796,870.357755L264.624629,878.420891L274.715343,890.484755L274.906462,893.031920L274.811015,893.673266L275.384124,893.440034L282.166105,886.240364L289.099270,883.458830L290.800129,878.730097L295.039942,873.674932L295.585041,873.131690L295.640263,872.290773L303.618373,856.600246L309.059595,851.817616L307.023942,840.650637L304.379946,837.080089L300.635733,835.082527L297.363485,831.080143L302.592949,823.434130L302.646107,813.000264L306.075721,805.264650L300.102646,793.077952L294.110313,784.687834L286.551201,786.923161L274.900649,786.855441Z " data-departemen="Mbam-et-Inoubou"/><path d="M176.186184,816.649314L176.161206,816.695363L169.835016,829.145589L171.382009,833.147844L168.106397,837.069248L164.007301,837.011329L159.757766,844.176565L141.896724,848.817346L140.474240,850.641541L142.315819,860.566219L141.137231,866.896307L144.933203,867.000677L143.466187,883.846864L141.021521,888.960408L140.798948,889.335140L141.009107,889.459007L145.662442,891.496703L150.850432,896.343774L147.352811,900.888125L149.224216,905.549893L149.235670,905.709261L149.552931,905.557958L161.429057,904.512018L173.776195,900.318765L177.979938,899.607571L193.417175,903.713513L193.773009,901.779630L202.251039,898.163404L201.501353,893.111440L212.985673,875.398174L219.200565,875.310349L219.586852,869.640160L227.995794,868.890683L230.694871,865.757232L230.549335,865.646170L230.269276,865.669096L225.758857,864.504664L222.737044,866.386705L215.286365,865.303485L213.987717,867.011378L211.221103,862.683055L205.365477,863.985182L205.964671,853.536417L212.644164,846.909574L215.654937,838.852725L213.269410,836.400630L207.557457,840.582263L200.170523,842.585350L214.520694,824.433194L217.725397,821.126682L218.733245,820.782640L218.684697,820.708434L209.557989,819.333611L211.954711,814.696604L207.459735,814.897701L208.074101,810.149567L202.815808,808.534743L203.374657,802.396565L203.368463,802.361444L203.266765,802.260324L197.418648,800.134223L194.417856,804.461282L187.693496,800.476542L186.812750,808.243194L180.554128,818.405177L176.316772,816.717277L176.186184,816.649314Z " data-departemen="Nkam"/><path d="M97.056810,798.821819L96.982660,798.968735L88.709341,807.795141L90.574668,812.328783L91.349452,824.238429L85.280578,832.196750L87.713994,843.169936L79.194989,849.354425L71.270735,856.892202L74.956810,860.274406L74.724857,867.547136L70.225077,871.867363L66.321530,872.920680L60.077864,878.332672L59.295648,881.573777L59.304724,881.587648L59.343960,881.647648L76.009975,890.057548L80.444156,890.039395L86.464616,873.502185L91.849165,865.183745L111.067819,873.643206L111.829018,873.632909L111.935952,873.631463L113.990107,869.466966L113.331639,864.849113L117.875517,853.353016L120.448398,850.446959L120.499982,850.448353L120.520028,850.343052L121.350203,843.572258L118.547741,841.004966L114.716721,840.750233L116.538463,829.844733L110.856365,825.643011L114.805194,814.459179L108.650776,810.155861L105.278173,799.738789L97.270092,798.989971L97.056810,798.821819Z " data-departemen="Meme"/><path d="M449.255071,878.041876L449.122835,879.295724L451.221799,887.374075L449.380988,899.227006L446.147895,900.840745L451.308176,906.179657L429.203269,920.696468L424.008047,924.993868L419.974708,924.244875L423.446745,933.589051L425.806137,934.470626L432.557677,942.777927L430.838947,952.566453L427.268415,960.184582L427.012159,960.872023L426.841246,961.429740L424.945784,975.436693L447.616500,999.430666L448.181078,1016.288605L451.366178,1024.999337L458.785520,1028.023718L470.001528,1026.900729L472.182353,1029.508372L482.804706,1031.657081L484.207952,1029.436334L491.483241,1030.770654L492.132117,1028.878356L498.239054,1033.117080L502.470776,1031.647027L507.556211,1036.090203L510.058708,1033.639641L520.032806,1038.151006L523.785025,1036.007779L525.912115,1030.296241L536.144075,1025.079890L541.345918,1100.075758L543.085572,1100.082927L604.036555,1099.878371L605.539799,1100.817262L611.287848,1098.267717L616.448685,1098.864256L619.858092,1102.740794L633.815787,1099.504850L635.124853,1096.886252L635.104943,1096.590821L635.213173,1054.482329L634.290153,1039.290137L631.292076,1041.007924L613.960427,1036.534138L607.596983,1031.686787L611.744460,1023.676556L618.694872,1020.279999L615.157941,1015.836936L612.372803,1008.905688L615.077478,1006.249661L619.425812,991.215557L626.957119,974.406657L622.228769,958.771664L622.943338,956.943267L616.653253,940.377294L616.577296,939.474388L614.697250,939.726587L571.801384,945.853779L570.180959,942.273132L566.911244,940.299618L566.322514,936.708932L563.369805,932.477112L554.567894,929.987249L552.610657,927.417643L546.514035,925.007074L541.991853,925.213946L533.684650,921.195818L524.525365,919.274702L527.306752,913.994115L523.545023,908.546221L548.125802,878.824930L548.418923,878.361875L548.122517,878.128791L541.704602,873.037727L540.604298,870.542110L518.262905,858.804299L493.870674,856.691222L493.129768,856.700429L492.826020,856.723648L484.274519,856.920950L472.505144,851.089876L469.438752,854.952243L458.857902,860.128043L455.392041,874.846745L453.303568,875.901957L449.255071,878.041876Z " data-departemen="Haut-Nyong"/><path d="M230.549335,865.646170L230.694871,865.757232L227.995794,868.890683L219.586852,869.640160L219.200565,875.310349L212.985673,875.398174L201.501353,893.111440L202.251039,898.163404L193.773009,901.779630L193.417175,903.713513L177.979938,899.607571L173.776195,900.318765L161.429057,904.512018L149.552931,905.557958L149.235670,905.709261L148.930237,905.928052L146.941277,908.152903L150.172250,917.489311L148.657446,918.571157L141.410871,916.750284L141.658389,917.064937L132.171486,921.954225L140.165409,926.500646L139.738294,931.889106L136.856712,927.859406L133.305785,929.338338L134.762583,936.764628L132.349449,938.143373L131.987400,938.187221L131.910062,938.256564L131.913470,938.279479L131.974900,938.693946L123.569969,935.847479L119.562690,931.364604L129.629956,949.826982L129.346756,959.391065L140.827680,968.535787L149.889216,978.597046L155.022290,987.751567L155.185367,988.363908L158.663369,987.591813L168.622191,980.411495L170.716246,973.750105L171.907601,964.659641L176.621620,956.328234L184.845953,954.586439L188.353995,961.762417L188.543369,962.407026L189.950185,962.388254L198.360668,955.770615L199.833036,949.924016L203.017141,944.621123L203.135062,938.740656L210.593887,931.054597L215.049094,931.921139L224.031659,937.733348L226.829432,940.972625L231.476340,934.563209L233.092351,929.653963L230.504105,920.991329L230.948158,916.149406L236.342046,912.577168L235.996803,909.738695L250.087856,902.978061L252.010308,901.112563L258.313749,900.412528L274.302201,893.994883L274.811015,893.673266L274.906462,893.031920L274.715343,890.484755L264.624629,878.420891L261.496796,870.357755L258.600763,868.387273L247.277773,850.133408L245.109687,850.535770L244.859634,857.741271L243.513535,862.148081L239.931655,862.416641L236.741285,859.480127L231.052658,865.404086L230.549335,865.646170Z " data-departemen="Sanaga-Maritime"/><path d="M295.585041,873.131690L295.039942,873.674932L290.800129,878.730097L289.099270,883.458830L282.166105,886.240364L275.384124,893.440034L274.811015,893.673266L274.970771,894.028304L281.016631,901.733323L278.750478,910.158930L281.213115,907.895739L287.897978,920.479152L289.116969,931.725141L289.543885,931.506756L295.842584,926.969373L300.565767,926.685348L309.003995,925.536811L309.259697,925.501259L309.649845,925.331680L315.136268,922.798242L315.968088,921.737015L316.030476,921.357815L316.056063,921.064131L325.784990,908.985055L322.914092,907.051950L327.597862,905.810625L325.787707,902.434130L330.853596,897.944534L329.114122,895.713490L337.166550,889.537360L337.764427,884.875629L341.926047,882.369426L341.904439,881.577899L341.991406,880.837364L342.085206,878.564545L341.438654,875.328319L340.217592,875.187754L339.515699,874.965472L338.577063,875.280903L336.359295,877.190008L322.958760,874.042947L319.194659,868.129495L312.251661,861.980456L307.840164,862.160105L300.641280,867.715851L295.979617,873.015223L295.585041,873.131690Z " data-departemen="Lekié"/><path d="M59.304724,881.587648L59.284963,881.599653L58.628947,883.456747L57.719949,884.201476L57.273247,885.171521L57.432856,885.199383L62.728512,893.678898L60.517322,902.028793L82.906653,910.884795L87.412600,918.119688L92.480412,912.725491L96.972946,920.622759L97.136975,920.813478L103.043310,917.356173L103.222018,916.369176L107.602065,909.843666L108.046211,909.902796L108.754128,910.054223L108.939736,909.937700L109.056654,909.676106L109.128524,909.416726L110.952482,906.341680L111.787947,906.040400L113.345547,907.253526L113.603952,907.191382L114.209969,906.753852L114.414601,906.444063L114.414787,906.443781L114.596429,906.133571L114.623690,905.783208L114.521599,904.971192L114.617725,904.729099L114.700151,904.548217L119.197725,901.518904L119.050808,899.069893L115.362794,892.206358L109.350472,892.809587L105.746399,891.542214L106.212263,884.226017L111.820834,873.808811L111.829018,873.632909L111.067819,873.643206L91.849165,865.183745L86.464616,873.502185L80.444156,890.039395L76.009975,890.057548L59.343960,881.647648L59.304724,881.587648Z " data-departemen="Fako"/><path d="M381.402879,909.780130L380.896129,912.092190L370.386354,920.366959L369.817902,930.466339L364.018243,934.758495L363.487701,935.256742L363.497017,936.249025L370.255007,946.514640L368.305654,947.159692L359.664579,958.394741L353.407283,957.665634L348.198657,959.654938L347.959410,965.684080L356.098266,964.175322L358.196534,966.120410L358.237495,966.972799L358.589554,967.194404L382.409826,978.217580L383.480383,981.768867L387.954178,982.481715L391.657098,980.904382L396.632839,965.512251L411.341723,953.345869L415.023990,947.133922L420.124078,945.586782L423.435184,951.211584L424.386966,957.109061L426.830555,960.651309L427.012159,960.872023L427.268415,960.184582L430.838947,952.566453L432.557677,942.777927L425.806137,934.470626L423.446745,933.589051L419.974708,924.244875L424.008047,924.993868L429.203269,920.696468L451.308176,906.179657L446.147895,900.840745L449.380988,899.227006L451.221799,887.374075L449.122835,879.295724L449.255071,878.041876L447.759026,878.919588L436.594930,873.367636L419.152011,876.325574L397.128131,898.933883L387.357909,902.006274L382.037755,909.941443L381.402879,909.780130Z " data-departemen="Nyong-et-Mfoumou"/><path d="M341.904439,881.577899L341.926047,882.369426L337.764427,884.875629L337.166550,889.537360L329.114122,895.713490L330.853596,897.944534L325.787707,902.434130L327.597862,905.810625L322.914092,907.051950L325.784990,908.985055L316.056063,921.064131L316.030476,921.357815L316.330887,921.642524L323.457350,921.510872L322.876877,929.989215L317.680493,935.016126L317.524924,934.915584L317.156301,935.129713L320.504297,941.669392L320.768876,945.588799L319.100051,951.892954L319.145326,952.245095L319.680935,952.482013L324.347905,951.985861L328.183154,958.571081L334.777794,960.193661L334.946391,958.763384L344.470183,950.357694L338.006357,945.240298L338.868431,942.428859L343.749755,937.593551L342.611760,936.392343L352.716784,931.485580L357.165648,930.622111L362.935544,935.696982L363.487701,935.256742L364.018243,934.758495L369.817902,930.466339L370.386354,920.366959L380.896129,912.092190L381.402879,909.780130L381.002747,908.808990L380.250500,902.770087L386.189922,894.758546L384.682082,891.155676L376.599697,891.276543L374.229914,892.986234L368.701091,891.898273L364.998271,885.469536L358.371706,886.534076L343.188091,881.927427L341.904439,881.577899Z " data-departemen="Méfou-et-Afamba"/><path d="M131.913470,938.279479L131.910062,938.256564L131.987400,938.187221L132.364111,937.823377L134.050524,933.882541L127.038738,925.855740L124.436411,931.272089L125.903206,936.469327L131.725657,938.366409L131.913470,938.279479Z M117.175177,914.579433L116.565838,911.366788L112.420444,912.300914L112.966195,915.050083L117.175177,914.579433Z M107.602065,909.843666L103.222018,916.369176L103.043310,917.356173L97.136975,920.813478L97.957877,921.585449L109.808250,922.705902L109.026997,914.066635L107.774809,909.879069L107.602065,909.843666Z M109.606122,909.736314L108.319244,910.820162L109.296108,912.744954L113.001161,907.639815L113.345547,907.253526L111.787947,906.040400L110.952482,906.341680L109.128524,909.416726L109.606122,909.736314Z M140.720278,889.796223L135.656611,899.287286L124.475851,900.604530L123.362886,902.512408L114.911682,904.785881L114.617725,904.729099L114.521599,904.971192L114.623690,905.783208L114.596429,906.133571L114.414787,906.443781L114.648158,906.855896L116.967074,909.913617L124.451026,911.160890L127.748887,909.482559L131.733819,911.626953L134.410480,918.718531L141.359786,916.825048L141.410871,916.750284L148.657446,918.571157L150.172250,917.489311L146.941277,908.152903L148.930237,905.928052L149.235670,905.709261L149.224216,905.549893L147.352811,900.888125L150.850432,896.343774L145.662442,891.496703L141.009107,889.459007L140.798948,889.335140L140.720278,889.796223Z " data-departemen="Wouri"/><path d="M274.811015,893.673266L274.302201,893.994883L258.313749,900.412528L252.010308,901.112563L250.087856,902.978061L235.996803,909.738695L236.342046,912.577168L230.948158,916.149406L230.504105,920.991329L233.092351,929.653963L231.476340,934.563209L226.829432,940.972625L224.031659,937.733348L215.049094,931.921139L210.593887,931.054597L203.135062,938.740656L203.017141,944.621123L199.833036,949.924016L198.360668,955.770615L189.950185,962.388254L188.543369,962.407026L188.407677,962.822825L195.301491,981.334459L220.974520,974.016681L242.738378,966.816490L248.305284,968.502144L252.868165,975.549732L262.386870,972.789810L262.798797,976.514167L270.310654,972.884165L272.265300,974.276647L272.895973,974.903947L273.354062,974.764930L277.984896,974.348030L280.121822,972.659383L285.786653,968.176476L286.250093,967.875303L286.511630,967.815822L292.636091,963.981852L293.051010,960.587557L292.345641,940.611194L289.175176,932.422050L289.116969,931.725141L287.897978,920.479152L281.213115,907.895739L278.750478,910.158930L281.016631,901.733323L274.970771,894.028304L274.811015,893.673266Z " data-departemen="Nyong-et-Kellé"/><path d="M683.656876,910.158287L669.422742,924.669901L660.919170,924.549949L643.149551,937.594072L618.663408,939.386923L616.577296,939.474388L616.653253,940.377294L622.943338,956.943267L622.228769,958.771664L626.957119,974.406657L619.425812,991.215557L615.077478,1006.249661L612.372803,1008.905688L615.157941,1015.836936L618.694872,1020.279999L611.744460,1023.676556L607.596983,1031.686787L613.960427,1036.534138L631.292076,1041.007924L634.290153,1039.290137L635.213173,1054.482329L635.104943,1096.590821L635.171307,1096.391440L640.389946,1101.299128L648.618463,1104.487551L656.951558,1110.988775L663.130231,1108.144231L667.706428,1113.001275L674.029321,1116.113227L674.982949,1113.627006L680.498621,1117.494198L686.064440,1119.143544L693.991436,1114.078694L706.862477,1118.127112L712.784089,1126.152549L726.082059,1119.470365L731.521521,1121.541477L755.108758,1126.261952L757.714046,1129.747164L770.537819,1139.177314L774.631085,1140.406544L781.867828,1140.568642L780.754698,1144.559817L785.203289,1152.096414L790.510811,1147.387558L794.022325,1148.251839L792.247284,1135.420664L784.368483,1115.975259L787.798415,1107.834802L788.029942,1096.015896L793.895961,1098.447086L798.145990,1094.972903L795.333788,1090.541514L796.362360,1088.764388L793.548432,1079.870220L786.092447,1069.079839L786.657107,1059.478484L786.074662,1053.477297L787.003675,1045.619904L784.006597,1035.268417L787.902621,1032.315958L785.415977,1022.897778L782.213145,1016.516557L770.698669,1010.252674L764.800451,1004.079876L758.538945,1004.279873L726.658219,967.688926L701.362198,941.600176L686.885736,918.021282L683.864842,910.711519L683.656876,910.158287Z " data-departemen="Boumba-et-Ngoko"/><path d="M316.030476,921.357815L315.968088,921.737015L315.136268,922.798242L309.649845,925.331680L309.259697,925.501259L309.255839,925.922530L312.897423,929.329353L314.033575,930.757991L317.392364,934.653851L317.524924,934.915584L317.680493,935.016126L322.876877,929.989215L323.457350,921.510872L316.330887,921.642524L316.030476,921.357815Z " data-departemen="Mfoundi"/><path d="M309.259697,925.501259L309.003995,925.536811L300.565767,926.685348L295.842584,926.969373L289.543885,931.506756L289.116969,931.725141L289.175176,932.422050L292.345641,940.611194L293.051010,960.587557L292.636091,963.981852L286.511630,967.815822L286.250093,967.875303L286.154488,968.596566L294.783064,969.643650L298.515725,972.827677L300.245163,972.013872L303.613219,979.208228L308.303046,979.040241L314.802967,975.031843L311.436127,970.747597L313.756835,967.707287L313.897655,955.108351L317.327271,954.935449L319.004941,952.361798L319.145326,952.245095L319.100051,951.892954L320.768876,945.588799L320.504297,941.669392L317.156301,935.129713L317.524924,934.915584L317.392364,934.653851L314.033575,930.757991L312.897423,929.329353L309.255839,925.922530L309.259697,925.501259Z " data-departemen="Méfou-et-Akono"/><path d="M319.145326,952.245095L319.004941,952.361798L317.327271,954.935449L313.897655,955.108351L313.756835,967.707287L311.436127,970.747597L314.802967,975.031843L308.303046,979.040241L303.613219,979.208228L300.245163,972.013872L298.515725,972.827677L294.783064,969.643650L286.154488,968.596566L286.250093,967.875303L285.786653,968.176476L280.121822,972.659383L277.984896,974.348030L273.354062,974.764930L272.895973,974.903947L273.043632,974.882459L279.155992,987.704173L279.012821,990.250125L284.601857,993.249230L285.399601,998.296472L284.883759,999.591946L285.930085,999.755508L288.968658,1004.640498L293.120101,1002.282312L308.462937,1000.680063L309.348033,1001.675036L332.685788,996.209917L337.261662,996.141662L337.357815,996.065710L337.847344,995.678885L339.046628,990.139967L343.332554,985.848907L354.070042,977.226379L355.975031,971.813073L358.237495,966.972799L358.196534,966.120410L356.098266,964.175322L347.959410,965.684080L348.198657,959.654938L353.407283,957.665634L359.664579,958.394741L368.305654,947.159692L370.255007,946.514640L363.497017,936.249025L363.487701,935.256742L362.935544,935.696982L357.165648,930.622111L352.716784,931.485580L342.611760,936.392343L343.749755,937.593551L338.868431,942.428859L338.006357,945.240298L344.470183,950.357694L334.946391,958.763384L334.777794,960.193661L328.183154,958.571081L324.347905,951.985861L319.680935,952.482013L319.145326,952.245095Z " data-departemen="Nyong-et-So'o"/><path d="M358.237495,966.972799L355.975031,971.813073L354.070042,977.226379L343.332554,985.848907L339.046628,990.139967L337.847344,995.678885L337.357815,996.065710L338.566348,998.815721L341.314095,1003.206698L336.682871,1009.138293L327.705431,1011.589117L333.901733,1014.854952L335.299414,1020.027889L351.344484,1044.052734L369.274778,1050.726622L395.832851,1055.758856L391.215289,1062.104880L386.648716,1066.563575L375.621753,1071.611502L367.672864,1076.701175L365.750656,1081.319092L363.079870,1083.562214L362.603706,1089.162667L362.734284,1089.211007L370.802221,1088.107304L390.130631,1089.486176L394.486090,1092.333252L406.796553,1090.453980L414.652134,1091.827989L423.355296,1091.931565L428.102706,1090.180923L445.088768,1094.905782L453.120358,1091.998994L461.470373,1093.515593L464.458685,1091.785313L473.509356,1091.908990L475.116770,1093.584983L486.922009,1089.179288L494.409928,1091.631852L497.165632,1090.023055L502.348484,1096.587389L502.118339,1099.530312L514.213732,1100.128368L538.540313,1100.061795L541.345918,1100.075758L536.144075,1025.079890L525.912115,1030.296241L523.785025,1036.007779L520.032806,1038.151006L510.058708,1033.639641L507.556211,1036.090203L502.470776,1031.647027L498.239054,1033.117080L492.132117,1028.878356L491.483241,1030.770654L484.207952,1029.436334L482.804706,1031.657081L472.182353,1029.508372L470.001528,1026.900729L458.785520,1028.023718L451.366178,1024.999337L448.181078,1016.288605L447.616500,999.430666L424.945784,975.436693L426.841246,961.429740L427.012159,960.872023L426.830555,960.651309L424.386966,957.109061L423.435184,951.211584L420.124078,945.586782L415.023990,947.133922L411.341723,953.345869L396.632839,965.512251L391.657098,980.904382L387.954178,982.481715L383.480383,981.768867L382.409826,978.217580L358.589554,967.194404L358.237495,966.972799Z " data-departemen="Dja-et-Lobo"/><path d="M155.183786,988.364085L162.067176,1005.777940L160.099223,1012.975648L155.320365,1018.959173L152.613924,1030.503226L153.012799,1035.901672L149.977891,1043.884445L146.283296,1059.033742L145.711631,1065.866063L147.613354,1083.698340L147.149435,1087.762512L148.695374,1091.934813L155.172731,1097.025696L158.060708,1096.819535L168.015328,1100.370705L183.135366,1099.915515L183.759226,1099.659941L185.870914,1094.257016L191.729068,1086.740584L198.104216,1081.418414L201.687217,1076.928347L204.474280,1069.936487L220.777257,1056.564556L225.565888,1044.683599L231.775882,1045.017429L233.545708,1040.127312L237.093350,1038.967526L237.144683,1038.184101L236.918969,1037.703651L237.304637,1035.268629L232.354113,1026.393147L229.185748,1027.027747L223.710293,1007.294447L249.867182,993.377638L257.179786,1001.418976L267.827777,998.501233L270.026952,996.331531L284.210340,999.575879L284.883759,999.591946L285.399601,998.296472L284.601857,993.249230L279.012821,990.250125L279.155992,987.704173L273.043632,974.882459L272.895973,974.903947L272.265300,974.276647L270.310654,972.884165L262.798797,976.514167L262.386870,972.789810L252.868165,975.549732L248.305284,968.502144L242.738378,966.816490L220.974520,974.016681L195.301491,981.334459L188.407677,962.822825L188.543369,962.407026L188.353995,961.762417L184.845953,954.586439L176.621620,956.328234L171.907601,964.659641L170.716246,973.750105L168.622191,980.411495L158.663369,987.591813L155.185367,988.363908L155.183786,988.364085Z " data-departemen="Océan"/><path d="M237.144683,1038.184101L237.521785,1038.295969L241.508595,1036.880902L247.131513,1037.823697L253.037274,1041.607796L255.804546,1040.652266L266.890238,1040.279561L303.295378,1056.302103L336.483464,1079.496623L335.226765,1085.328362L335.384473,1085.524589L343.291464,1087.603487L343.759622,1090.234934L351.480019,1088.887122L353.108598,1089.858054L360.901556,1088.436399L362.384343,1089.284381L362.603706,1089.162667L363.079870,1083.562214L365.750656,1081.319092L367.672864,1076.701175L375.621753,1071.611502L386.648716,1066.563575L391.215289,1062.104880L395.832851,1055.758856L369.274778,1050.726622L351.344484,1044.052734L335.299414,1020.027889L333.901733,1014.854952L327.705431,1011.589117L336.682871,1009.138293L341.314095,1003.206698L338.566348,998.815721L337.357815,996.065710L337.261662,996.141662L332.685788,996.209917L309.348033,1001.675036L308.462937,1000.680063L293.120101,1002.282312L288.968658,1004.640498L285.930085,999.755508L284.883759,999.591946L284.210340,999.575879L270.026952,996.331531L267.827777,998.501233L257.179786,1001.418976L249.867182,993.377638L223.710293,1007.294447L229.185748,1027.027747L232.354113,1026.393147L237.304637,1035.268629L236.918969,1037.703651L237.144683,1038.184101Z " data-departemen="Mvila"/><path d="M237.144683,1038.184101L237.093350,1038.967526L233.545708,1040.127312L231.775882,1045.017429L225.565888,1044.683599L220.777257,1056.564556L204.474280,1069.936487L201.687217,1076.928347L198.104216,1081.418414L191.729068,1086.740584L185.870914,1094.257016L183.759226,1099.659941L188.936780,1099.659271L266.615161,1099.911130L266.859967,1100.174634L303.624545,1100.119273L303.676129,1094.258151L305.395689,1093.199278L306.262447,1087.671216L316.635694,1087.680893L334.792430,1085.560179L335.226765,1085.328362L336.483464,1079.496623L303.295378,1056.302103L266.890238,1040.279561L255.804546,1040.652266L253.037274,1041.607796L247.131513,1037.823697L241.508595,1036.880902L237.521785,1038.295969L237.144683,1038.184101Z " data-departemen="Vallée-Du-Ntem"/></g></svg>