<?xml version="1.0" ?><!DOCTYPE svg  PUBLIC '-//W3C//DTD SVG 1.1//EN'  'http://www.w3.org/Graphics/SVG/1.1/DTD/svg11.dtd'><svg enable_background="new 0 0 800 702" height="702px" style="stroke-linejoin: round; stroke:#000; fill:#f6f3f0;" version="1.1" viewBox="0 0 800 702" width="800px" xmlns="http://www.w3.org/2000/svg" xmlns:xlink="http://www.w3.org/1999/xlink"><defs><style type="text/css"><![CDATA[path { fill-rule: evenodd; }
#context path { fill: #eee; stroke: #bbb; } ]]></style></defs><metadata><views><view h="702.473914108" padding="0" w="800"><proj id="laea" lat0="6.45" lon0="10.36"/><bbox h="18.52" w="21.12" x="989.44" y="990.73"/><llbbox lat0="5.7" lat1="7.2" lon0="9.5" lon1="11.22"/></view></views></metadata><g id="departement"><path d="M423.077205,135.592531L426.218811,146.908217L432.107478,157.030235L430.955042,168.713755L434.452218,175.948831L438.241348,178.596106L441.040740,202.072028L440.956262,207.576695L443.481399,226.374809L443.592017,226.553746L443.751434,226.812481L444.646865,229.489206L444.646667,246.534464L449.902984,251.181739L455.373763,252.727174L465.286438,260.403405L467.045334,260.034441L469.157154,271.620530L471.319515,274.466877L473.114613,282.774498L472.183434,286.104088L474.114825,294.139010L472.013768,298.667143L477.041987,305.235712L478.385321,310.100666L474.174395,312.328821L476.391895,313.900951L472.245135,323.685387L473.525640,329.931310L472.331960,334.462777L476.354229,339.209631L481.506233,340.097604L497.145556,345.219718L497.223043,345.148432L497.594754,344.806989L505.945167,341.365251L511.076869,336.320874L517.203581,341.122307L522.057575,341.063654L525.375483,348.900541L530.093322,349.678038L538.969868,354.551047L539.937513,358.645646L542.874545,361.780738L547.987908,363.381248L551.867112,380.637368L552.810506,381.708569L559.280883,376.209287L563.456281,377.039781L567.777859,373.774044L585.124542,376.587547L587.081478,383.943787L583.627531,388.837621L588.315649,393.874356L617.187821,399.295878L622.109151,397.199859L627.572279,397.027254L636.206718,400.787623L642.622185,411.828309L645.413634,412.926371L651.605654,422.243788L661.261532,421.185908L672.350553,434.868103L679.065155,436.732458L688.125299,432.859006L692.177373,429.218172L702.496786,431.556110L705.970109,434.240753L707.743941,439.180112L716.133296,441.257041L719.577408,448.504038L721.155577,454.271779L721.922525,454.731112L720.960491,459.401933L727.966580,463.106414L730.756660,460.084562L744.440198,458.437638L748.764496,455.957324L761.841197,451.943914L764.853875,447.772078L764.308492,444.982099L773.486089,436.811005L776.762932,438.646677L788.599510,440.304774L782.320434,436.744704L781.631477,429.576594L785.394416,414.173260L793.234014,409.513776L794.145727,396.804160L788.611375,386.674482L791.099206,383.119601L791.677290,378.309022L789.419333,372.385573L789.002750,355.849291L785.803143,349.644197L786.843738,344.042349L791.921686,331.774774L791.300568,327.652766L788.400576,323.603911L787.651446,314.954520L777.346944,316.355971L771.289754,313.609663L769.277795,314.442305L763.385919,312.055625L757.518284,314.003102L752.508932,319.520660L748.786573,319.558487L741.578497,315.755270L740.863364,263.455893L740.988870,256.727461L742.517492,245.716830L731.898749,232.396912L724.979741,227.276786L723.521727,229.882744L716.042015,229.597986L712.384541,227.695922L700.454746,236.881254L692.082723,238.878511L685.941501,238.293786L680.602805,239.857351L672.453838,236.689659L670.803911,239.792742L657.892333,228.977665L655.993247,215.850792L656.796284,206.788736L654.731095,202.775037L650.573977,202.282006L650.334125,204.772422L630.195725,182.947831L621.343114,181.467036L615.922488,174.964401L613.467732,170.098112L612.765503,164.990504L613.390644,157.854012L616.483683,146.398409L622.142466,132.739416L622.495425,121.353802L609.841588,116.805252L603.674522,110.577266L595.025317,108.073413L586.374872,112.273780L585.065127,109.674476L579.826034,107.079387L578.829579,102.508072L573.983962,97.206780L567.217577,98.018773L556.632610,86.537793L549.379816,80.617443L549.313243,75.195358L539.103014,69.112022L536.533240,72.976468L523.250185,69.399847L516.289334,63.583015L513.998147,59.924284L510.228090,57.400259L513.377628,50.579119L514.329549,44.158766L510.200166,25.325762L504.950066,22.540474L503.571282,19.919050L498.066661,17.324224L495.433656,25.649829L491.166608,67.897386L492.119938,79.660308L489.693602,90.272541L488.285541,103.314701L483.760901,110.538517L482.625323,121.569462L481.075832,121.185054L476.761934,127.594436L468.311540,130.384389L461.079674,139.261760L455.611617,138.852604L452.208927,133.864563L447.980182,132.905502L423.783700,135.516728L423.077205,135.592531Z " data-departemen="Donga-Mantung"/><path d="M140.086304,437.983291L146.710138,429.666444L156.029857,430.149065L158.895622,435.507903L158.140728,439.862871L161.058882,452.874332L165.610422,460.784381L169.039536,462.793125L177.082318,459.228015L183.946155,458.899681L191.420888,456.249101L192.209346,455.938449L191.600065,455.579288L190.616057,447.745453L195.839505,435.951020L206.098699,437.743066L211.590809,433.657423L211.496689,429.311728L223.540012,423.400096L226.664921,418.638313L231.592759,418.159659L246.490696,423.907155L254.521922,431.178365L257.474053,443.853905L260.386838,445.883357L258.854957,448.281191L262.484668,449.977378L261.768293,452.343823L266.016409,450.835740L266.617184,450.821473L266.795349,450.643295L270.432766,449.233906L272.880198,442.437275L278.387638,438.709634L281.698873,439.075579L284.816774,430.460044L283.945579,428.324085L285.206408,421.390401L289.560905,415.135120L296.617171,402.519786L303.170396,395.589137L310.122755,386.760543L320.693130,388.006085L327.557795,393.531139L328.527791,398.147122L333.515637,404.281679L344.300569,404.086652L347.906640,406.196229L351.936828,403.045555L358.538688,402.873266L365.141846,400.075867L372.248395,402.116299L374.771356,400.447480L373.205437,394.612687L369.917553,387.622901L372.040277,379.876472L368.011589,369.790705L377.326432,367.425042L379.966522,359.121787L386.254845,349.610968L388.022630,333.508972L390.020449,333.212781L390.739087,323.776310L399.612873,312.072337L400.890498,311.383220L397.981978,303.780205L396.467960,289.300359L394.773406,282.024351L392.962433,266.594068L394.138687,264.553289L392.082123,257.173084L404.787314,257.154955L409.277441,256.285094L411.080169,250.269730L418.748682,245.376717L424.391244,238.903031L437.027985,232.672434L439.818125,228.703982L443.567662,226.737565L443.592017,226.553746L443.481399,226.374809L440.956262,207.576695L441.040740,202.072028L438.241348,178.596106L434.452218,175.948831L430.955042,168.713755L432.107478,157.030235L426.218811,146.908217L423.077205,135.592531L422.380847,135.672280L333.817819,145.218527L318.003515,126.977497L313.838828,120.531629L315.913099,118.761536L318.597574,111.184644L316.944431,103.428004L317.400809,100.265118L314.061981,98.739383L311.984213,92.020307L316.234449,87.877354L315.572753,86.479108L308.274998,83.553969L309.835102,77.325622L304.137669,75.410119L298.850771,81.146845L270.436331,107.762449L263.982687,112.133966L253.553941,123.420034L242.553848,130.727860L239.521902,139.488336L232.582096,141.244847L215.731161,155.630124L199.417346,172.351920L182.768873,187.766485L169.707968,198.018914L169.066233,197.290901L149.193921,194.878679L142.996094,191.018395L142.066336,192.155311L132.142900,189.357149L130.305064,189.866117L126.297393,202.545801L124.014271,207.488625L124.195189,218.370421L121.135931,237.242108L123.464066,238.019328L117.590760,243.254037L118.237252,252.316283L114.757274,256.842432L110.269895,272.761122L104.505778,290.955803L103.346777,298.974009L101.514314,301.583287L98.369901,313.361292L97.240167,324.988288L105.148154,330.684818L112.247995,343.864489L109.932512,352.896464L110.884278,358.038013L116.725215,364.846220L116.510378,368.476429L123.589720,381.220136L121.167607,390.832700L124.705286,398.003343L127.152139,410.656274L126.397530,412.855232L134.557323,432.639807L139.556248,436.987514L140.086304,437.983291Z " data-departemen="Menchum"/><path d="M443.592017,226.553746L443.567662,226.737565L439.818125,228.703982L437.027985,232.672434L424.391244,238.903031L418.748682,245.376717L411.080169,250.269730L409.277441,256.285094L404.787314,257.154955L392.082123,257.173084L394.138687,264.553289L392.962433,266.594068L394.773406,282.024351L396.467960,289.300359L397.981978,303.780205L400.890498,311.383220L399.612873,312.072337L390.739087,323.776310L390.020449,333.212781L388.022630,333.508972L386.254845,349.610968L379.966522,359.121787L377.326432,367.425042L368.011589,369.790705L372.040277,379.876472L369.917553,387.622901L373.205437,394.612687L374.771356,400.447480L372.248395,402.116299L365.141846,400.075867L358.538688,402.873266L351.936828,403.045555L347.906640,406.196229L344.300569,404.086652L333.515637,404.281679L328.527791,398.147122L327.557795,393.531139L320.693130,388.006085L310.122755,386.760543L303.170396,395.589137L296.617171,402.519786L289.560905,415.135120L285.206408,421.390401L283.945579,428.324085L284.816774,430.460044L281.698873,439.075579L278.387638,438.709634L272.880198,442.437275L270.432766,449.233906L266.795349,450.643295L266.617184,450.821473L266.650071,450.978040L271.112932,458.731032L272.004526,472.395328L269.166672,477.872682L272.741410,479.345398L281.017135,486.515945L282.307870,485.011223L287.904983,485.338609L294.858177,482.362635L297.226591,478.202197L304.060876,476.209148L309.390345,479.194352L313.630400,476.356821L317.329323,476.880125L326.226322,481.840289L324.440878,483.623120L327.375314,488.154660L333.766596,487.981102L336.021855,491.203928L342.677539,487.411890L346.453902,487.957774L358.890993,485.990443L368.889538,489.612767L376.712822,489.052076L378.658897,493.882446L387.852270,510.917605L391.886059,512.748442L392.905914,513.332565L393.472416,513.065920L401.942322,511.155023L401.001056,503.802837L405.367969,498.933026L415.615396,493.921566L424.038917,492.781649L433.075187,488.381692L433.496314,488.284885L433.862617,488.207460L443.741226,468.876454L438.588071,462.239990L434.225305,454.689458L431.319450,452.146413L435.764087,445.098873L440.539221,445.502299L446.200464,442.088160L450.022624,444.153132L452.562155,438.072489L453.473466,424.493373L467.353856,421.625683L468.652872,414.737785L466.873037,414.509912L466.696858,403.329286L461.340740,398.144019L471.405461,392.887659L475.393150,386.777615L481.435126,386.168102L486.357216,379.089225L487.405854,372.636438L490.444979,370.701202L493.508906,361.439354L492.534869,358.555259L495.788334,357.324261L497.240024,345.366661L497.223043,345.148432L497.145556,345.219718L481.506233,340.097604L476.354229,339.209631L472.331960,334.462777L473.525640,329.931310L472.245135,323.685387L476.391895,313.900951L474.174395,312.328821L478.385321,310.100666L477.041987,305.235712L472.013768,298.667143L474.114825,294.139010L472.183434,286.104088L473.114613,282.774498L471.319515,274.466877L469.157154,271.620530L467.045334,260.034441L465.286438,260.403405L455.373763,252.727174L449.902984,251.181739L444.646667,246.534464L444.646865,229.489206L443.751434,226.812481L443.592017,226.553746Z " data-departemen="Boyo"/><path d="M497.223043,345.148432L497.240024,345.366661L495.788334,357.324261L492.534869,358.555259L493.508906,361.439354L490.444979,370.701202L487.405854,372.636438L486.357216,379.089225L481.435126,386.168102L475.393150,386.777615L471.405461,392.887659L461.340740,398.144019L466.696858,403.329286L466.873037,414.509912L468.652872,414.737785L467.353856,421.625683L453.473466,424.493373L452.562155,438.072489L450.022624,444.153132L446.200464,442.088160L440.539221,445.502299L435.764087,445.098873L431.319450,452.146413L434.225305,454.689458L438.588071,462.239990L443.741226,468.876454L433.862617,488.207460L433.496314,488.284885L433.473624,488.552891L433.056919,493.231584L434.270430,502.549875L432.514970,505.728653L434.807586,511.777254L440.778268,510.943357L448.548176,511.611048L466.240941,503.625309L471.437837,510.429289L475.300703,511.846350L481.460215,521.880347L480.635784,525.563970L483.169624,530.406347L492.304080,535.377092L498.183052,533.448485L499.537098,530.905436L498.690583,525.665064L508.813313,523.468053L510.048177,524.275286L513.596208,536.145094L515.938725,537.703541L516.840702,542.999626L520.694809,552.390653L524.921407,554.601130L529.632294,553.920557L533.333947,559.781707L535.410672,565.650145L539.130411,568.950669L539.135383,568.954115L548.428376,563.381805L550.561708,557.467931L558.124435,551.779905L561.055361,541.747140L565.490644,544.795912L568.924552,544.480470L573.555263,549.238356L581.497466,549.202105L591.889142,552.310056L592.792471,550.335640L599.220000,551.686345L603.733715,554.198805L615.881155,567.294413L619.852959,569.169144L627.172242,567.489566L631.323648,552.658731L635.938676,550.001367L646.468195,550.886989L651.581531,553.121937L663.057672,552.312647L665.109703,549.939203L674.714240,543.341021L678.301564,543.628934L683.808149,539.153633L692.121945,529.783435L696.252971,517.812278L692.776479,513.124871L697.374598,501.557225L698.518424,496.523991L702.041937,488.962244L701.779206,483.199872L696.965464,454.780962L695.348327,449.584542L705.007158,451.149793L709.029131,449.083529L721.039712,454.403098L721.155577,454.271779L719.577408,448.504038L716.133296,441.257041L707.743941,439.180112L705.970109,434.240753L702.496786,431.556110L692.177373,429.218172L688.125299,432.859006L679.065155,436.732458L672.350553,434.868103L661.261532,421.185908L651.605654,422.243788L645.413634,412.926371L642.622185,411.828309L636.206718,400.787623L627.572279,397.027254L622.109151,397.199859L617.187821,399.295878L588.315649,393.874356L583.627531,388.837621L587.081478,383.943787L585.124542,376.587547L567.777859,373.774044L563.456281,377.039781L559.280883,376.209287L552.810506,381.708569L551.867112,380.637368L547.987908,363.381248L542.874545,361.780738L539.937513,358.645646L538.969868,354.551047L530.093322,349.678038L525.375483,348.900541L522.057575,341.063654L517.203581,341.122307L511.076869,336.320874L505.945167,341.365251L497.594754,344.806989L497.223043,345.148432Z " data-departemen="Bui"/><path d="M192.209346,455.938449L192.466541,455.912998L205.596298,459.097007L211.827286,465.313310L213.179065,472.667696L228.726538,489.297204L241.305150,499.741188L242.422411,505.485898L251.373283,511.239595L252.100673,517.675946L251.714132,527.985867L248.490785,547.895481L250.384653,556.066372L253.420704,559.950469L252.398233,562.908106L259.993294,574.154053L259.213106,580.072772L259.781967,590.161549L252.985270,590.368033L244.368392,592.949122L240.271071,596.368556L232.243126,598.616024L230.972485,605.438499L225.905329,606.185562L222.653584,608.635011L224.610111,614.069108L225.970934,622.495757L222.245854,628.071920L218.477017,624.141449L212.006019,622.695583L204.975044,625.593783L203.013952,631.174403L211.779912,638.100067L213.023737,637.633961L218.715541,642.529996L220.435906,653.794852L220.167257,657.056359L224.462348,672.885351L223.469119,682.255369L224.066068,683.195205L225.971010,687.098783L230.627420,691.098244L242.529515,690.546165L250.261353,691.414144L261.241713,691.083273L269.191494,695.961871L274.857615,692.914883L276.951556,687.289896L284.477567,681.264625L285.493453,676.430276L298.457414,667.726290L308.759353,670.130660L316.721860,667.212351L320.727218,669.645964L325.157132,675.409518L329.852266,679.419750L333.120531,676.802715L340.624772,682.260629L344.266081,683.687923L350.431471,689.946998L358.700252,688.715623L360.286300,696.114054L363.194026,698.087009L368.263943,693.608800L375.809159,688.622562L375.329788,687.292377L364.962689,677.382132L362.138235,668.282783L378.706463,652.952957L378.962634,652.685763L377.524164,646.382486L374.363479,638.913238L373.824125,634.756718L369.981032,629.575756L364.350434,627.249793L362.676663,624.240881L364.313405,619.575921L359.555491,609.712269L351.395293,600.454384L354.850569,596.196045L363.540337,595.245774L368.225963,589.326121L383.854840,586.326577L385.943770,587.348114L405.271493,584.838206L401.580389,579.370553L395.975763,575.760353L393.615490,567.106233L396.876982,555.126829L404.207362,548.637620L408.978742,543.025394L402.026789,535.047062L397.667488,532.478300L395.213516,524.441012L393.370749,513.791527L392.905914,513.332565L391.886059,512.748442L387.852270,510.917605L378.658897,493.882446L376.712822,489.052076L368.889538,489.612767L358.890993,485.990443L346.453902,487.957774L342.677539,487.411890L336.021855,491.203928L333.766596,487.981102L327.375314,488.154660L324.440878,483.623120L326.226322,481.840289L317.329323,476.880125L313.630400,476.356821L309.390345,479.194352L304.060876,476.209148L297.226591,478.202197L294.858177,482.362635L287.904983,485.338609L282.307870,485.011223L281.017135,486.515945L272.741410,479.345398L269.166672,477.872682L272.004526,472.395328L271.112932,458.731032L266.650071,450.978040L266.617184,450.821473L266.016409,450.835740L261.768293,452.343823L262.484668,449.977378L258.854957,448.281191L260.386838,445.883357L257.474053,443.853905L254.521922,431.178365L246.490696,423.907155L231.592759,418.159659L226.664921,418.638313L223.540012,423.400096L211.496689,429.311728L211.590809,433.657423L206.098699,437.743066L195.839505,435.951020L190.616057,447.745453L191.600065,455.579288L192.209346,455.938449Z " data-departemen="Mezam"/><path d="M140.289172,438.494724L146.251927,454.128478L140.190208,461.843349L128.823845,465.299316L130.617677,471.180581L133.545110,471.981495L135.159844,480.565673L124.804628,485.722357L124.697779,495.050810L123.158229,502.621398L113.211035,504.416614L108.988086,511.287577L106.675970,519.437369L93.387672,519.459043L89.663107,524.443384L65.230543,538.826142L60.203309,541.159387L57.091708,547.363118L52.683552,550.669981L53.121905,555.139970L55.763149,557.236167L65.074487,567.974390L59.135399,586.739809L57.081810,589.192391L50.374394,588.974205L48.972663,599.293917L43.663321,603.581960L44.581414,611.516811L43.691294,614.787902L53.348121,613.784720L54.297527,615.831675L62.373768,612.232316L68.583818,622.962102L82.299334,634.437266L85.896070,636.144316L89.974047,627.116486L115.932824,641.705309L118.105754,644.883680L120.690448,659.022754L122.304195,661.377101L145.083002,665.093807L145.839486,673.496959L155.020787,676.301429L159.158864,674.479418L164.188476,675.586754L164.657000,683.754202L175.901179,682.385623L178.405924,681.330410L180.261323,689.747122L186.985470,689.886608L210.553554,676.214732L212.728354,676.208983L222.962958,681.596266L223.469119,682.255369L224.462348,672.885351L220.167257,657.056359L220.435906,653.794852L218.715541,642.529996L213.023737,637.633961L211.779912,638.100067L203.013952,631.174403L204.975044,625.593783L212.006019,622.695583L218.477017,624.141449L222.245854,628.071920L225.970934,622.495757L224.610111,614.069108L222.653584,608.635011L225.905329,606.185562L230.972485,605.438499L232.243126,598.616024L240.271071,596.368556L244.368392,592.949122L252.985270,590.368033L259.781967,590.161549L259.213106,580.072772L259.993294,574.154053L252.398233,562.908106L253.420704,559.950469L250.384653,556.066372L248.490785,547.895481L251.714132,527.985867L252.100673,517.675946L251.373283,511.239595L242.422411,505.485898L241.305150,499.741188L228.726538,489.297204L213.179065,472.667696L211.827286,465.313310L205.596298,459.097007L192.466541,455.912998L192.209346,455.938449L191.420888,456.249101L183.946155,458.899681L177.082318,459.228015L169.039536,462.793125L165.610422,460.784381L161.058882,452.874332L158.140728,439.862871L158.895622,435.507903L156.029857,430.149065L146.710138,429.666444L140.086304,437.983291L140.289172,438.494724Z " data-departemen="Momo"/><path d="M433.496314,488.284885L433.075187,488.381692L424.038917,492.781649L415.615396,493.921566L405.367969,498.933026L401.001056,503.802837L401.942322,511.155023L393.472416,513.065920L392.905914,513.332565L393.370749,513.791527L395.213516,524.441012L397.667488,532.478300L402.026789,535.047062L408.978742,543.025394L404.207362,548.637620L396.876982,555.126829L393.615490,567.106233L395.975763,575.760353L401.580389,579.370553L405.271493,584.838206L385.943770,587.348114L383.854840,586.326577L368.225963,589.326121L363.540337,595.245774L354.850569,596.196045L351.395293,600.454384L359.555491,609.712269L364.313405,619.575921L362.676663,624.240881L364.350434,627.249793L369.981032,629.575756L373.824125,634.756718L374.363479,638.913238L377.524164,646.382486L378.962634,652.685763L380.552889,651.181687L393.856278,648.544521L398.748847,650.946586L409.687940,653.419148L413.184053,650.568276L430.519451,650.509565L435.202667,652.285420L438.216988,646.685802L445.940678,641.220261L450.016656,641.654612L451.328882,647.342944L460.469172,643.310576L476.602876,637.373886L482.888714,641.521643L493.217566,643.690833L494.765129,646.062114L496.022942,655.915858L501.756604,663.725265L505.856935,663.187837L512.592593,660.031907L513.728216,653.657531L511.115775,648.927043L518.420785,641.941909L524.641622,638.393926L525.299943,634.520015L520.844623,630.343624L519.242253,625.492605L519.301953,616.770340L525.597512,614.429135L529.022271,608.842119L527.523058,607.118394L530.388585,591.914184L530.248317,588.049714L534.802394,585.670672L540.290701,579.921345L539.099515,570.336154L539.130411,568.950669L535.410672,565.650145L533.333947,559.781707L529.632294,553.920557L524.921407,554.601130L520.694809,552.390653L516.840702,542.999626L515.938725,537.703541L513.596208,536.145094L510.048177,524.275286L508.813313,523.468053L498.690583,525.665064L499.537098,530.905436L498.183052,533.448485L492.304080,535.377092L483.169624,530.406347L480.635784,525.563970L481.460215,521.880347L475.300703,511.846350L471.437837,510.429289L466.240941,503.625309L448.548176,511.611048L440.778268,510.943357L434.807586,511.777254L432.514970,505.728653L434.270430,502.549875L433.056919,493.231584L433.473624,488.552891L433.496314,488.284885Z " data-departemen="Ngo-Ketunjia"/></g></svg>